<?xml version="1.0" encoding="UTF-8"?>
<svg width="40px" height="40px" viewBox="0 0 40 40" version="1.1" xmlns="http://www.w3.org/2000/svg" xmlns:xlink="http://www.w3.org/1999/xlink">
    <!-- Generator: Sketch 45.1 (43504) - http://www.bohemiancoding.com/sketch -->
    <title>Equipment NE</title>
    <desc>Created with Sketch.</desc>
    <defs>
        <path d="M15,30 C6.716,30 0,23.284 0,15 C0,6.716 6.716,0 15,0 L30,0 L30,15 C30,23.284 23.284,30 15,30 Z" id="path-1"></path>
        <filter x="-15.0%" y="-15.0%" width="130.0%" height="130.0%" filterUnits="objectBoundingBox" id="filter-2">
            <feMorphology radius="0.5" operator="dilate" in="SourceAlpha" result="shadowSpreadOuter1"></feMorphology>
            <feOffset dx="0" dy="0" in="shadowSpreadOuter1" result="shadowOffsetOuter1"></feOffset>
            <feGaussianBlur stdDeviation="1" in="shadowOffsetOuter1" result="shadowBlurOuter1"></feGaussianBlur>
            <feColorMatrix values="0 0 0 0 0   0 0 0 0 0   0 0 0 0 0  0 0 0 0.5 0" type="matrix" in="shadowBlurOuter1"></feColorMatrix>
        </filter>
        <linearGradient x1="50%" y1="0%" x2="50%" y2="99.2725606%" id="linearGradient-3">
            <stop stop-color="#8B8B8B" stop-opacity="0.5" offset="0%"></stop>
            <stop stop-color="#8B8B8B" offset="100%"></stop>
        </linearGradient>
        <path d="M13,26 C5.82053333,26 0,20.1794667 0,13 C0,5.82053333 5.82053333,0 13,0 C20.1794667,0 26,5.82053333 26,13 C26,20.1794667 20.1794667,26 13,26 Z" id="path-4"></path>
    </defs>
    <g id="Export-symbols" stroke="none" stroke-width="1" fill="none" fill-rule="evenodd">
        <g id="Equipment-NE">
            <g id="Direction" transform="translate(5.000000, 5.000000)">
                <g id="Outer-circle">
                    <use fill="black" fill-opacity="1" filter="url(#filter-2)" xlink:href="#path-1"></use>
                    <use fill="#FFFFFF" fill-rule="evenodd" xlink:href="#path-1"></use>
                </g>
                <path d="M15,28 C7.82053333,28 2,22.1794667 2,15 C2,7.82053333 7.82053333,2 15,2 C22.1794667,2 28,7.82053333 28,15 C28,22.1794667 22.1794667,28 15,28 Z" id="Symbol-background" fill="#FEFEFE" fill-rule="evenodd"></path>
            </g>
            <g id="Equipment-symbol" transform="translate(5.000000, 5.000000)">
                <g id="Symbol" transform="translate(2.000000, 2.000000)">
                    <g id="Outer-circle">
                        <use fill="url(#linearGradient-3)" fill-rule="evenodd" xlink:href="#path-4"></use>
                        <path stroke-opacity="0.1" stroke="#000000" stroke-width="1" d="M13,25.5 C19.9033243,25.5 25.5,19.9033243 25.5,13 C25.5,6.09667571 19.9033243,0.5 13,0.5 C6.09667571,0.5 0.5,6.09667571 0.5,13 C0.5,19.9033243 6.09667571,25.5 13,25.5 Z"></path>
                    </g>
                    <g id="Equipment" transform="translate(6.000000, 5.000000)" fill="#FEFEFE">
                        <path d="M0,11.7718715 L0,3.35774859 C0,2.01464244 0.579370434,1.11925177 1.73812868,0.671549719 C2.89688693,0.223847668 4.56916069,0 6.75500011,0 C8.94083954,0 10.6131133,0.223847668 11.7718715,0.671549719 C12.9306298,1.11925177 13.5100002,2.01464244 13.5100002,3.35774859 L13.5100002,11.7718715 C13.5100002,12.5092632 13.220315,13.1413036 12.6409359,13.6680119 L12.6409359,15.1691231 C12.6409359,15.3798064 12.5619308,15.5707353 12.4039183,15.7419155 C12.2459059,15.9130957 12.0483932,15.9986845 11.8113745,15.9986845 L10.9818131,15.9986845 C10.7447943,15.9986845 10.5406979,15.9130957 10.3695177,15.7419155 C10.1983375,15.5707353 10.1127487,15.3798064 10.1127487,15.1691231 L10.1127487,14.3000587 L3.39725152,14.3000587 L3.39725152,15.1691231 C3.39725152,15.3798064 3.31166271,15.5707353 3.14048251,15.7419155 C2.96930231,15.9130957 2.76520591,15.9986845 2.52818718,15.9986845 L1.69862576,15.9986845 C1.46160703,15.9986845 1.26409438,15.9130957 1.10608189,15.7419155 C0.948069401,15.5707353 0.869064342,15.3798064 0.869064342,15.1691231 L0.869064342,13.6680119 C0.289685217,13.1413036 0,12.5092632 0,11.7718715 Z M2.96271935,12.6409359 C3.30507974,12.6409359 3.60134871,12.5158445 3.85153515,12.2656581 C4.10172159,12.0154717 4.22681294,11.7192027 4.22681294,11.3768423 C4.22681294,11.0344819 4.10830535,10.7382129 3.87128662,10.4880265 C3.63426788,10.2378401 3.33141516,10.1127487 2.96271935,10.1127487 C2.59402354,10.1127487 2.29117081,10.2378401 2.05415208,10.4880265 C1.81713335,10.7382129 1.69862576,11.0344819 1.69862576,11.3768423 C1.69862576,11.7192027 1.8237171,12.0154717 2.07390354,12.2656581 C2.32408998,12.5158445 2.62035896,12.6409359 2.96271935,12.6409359 Z M10.5472809,12.6409359 C10.8896413,12.6409359 11.1859102,12.5158445 11.4360967,12.2656581 C11.6862831,12.0154717 11.8113745,11.7192027 11.8113745,11.3768423 C11.8113745,11.0344819 11.6928669,10.7382129 11.4558481,10.4880265 C11.2188294,10.2378401 10.9159767,10.1127487 10.5472809,10.1127487 C10.1785851,10.1127487 9.87573235,10.2378401 9.63871361,10.4880265 C9.40169488,10.7382129 9.28318729,11.0344819 9.28318729,11.3768423 C9.28318729,11.7192027 9.40827864,12.0154717 9.65846508,12.2656581 C9.90865152,12.5158445 10.2049205,12.6409359 10.5472809,12.6409359 Z M11.8113745,7.58456153 L11.8113745,3.35774859 L1.69862576,3.35774859 L1.69862576,7.58456153 L11.8113745,7.58456153 Z" id="Icon"></path>
                    </g>
                </g>
            </g>
        </g>
    </g>
</svg>