<?xml version="1.0" encoding="UTF-8"?>
<svg width="24px" height="24px" viewBox="0 0 24 24" version="1.1" xmlns="http://www.w3.org/2000/svg" xmlns:xlink="http://www.w3.org/1999/xlink">
    <!-- Generator: Sketch 46.2 (44496) - http://www.bohemiancoding.com/sketch -->
    <title>Organization center</title>
    <desc>Created with Sketch.</desc>
    <defs></defs>
    <g id="Icon-font" stroke="none" stroke-width="1" fill="none" fill-rule="evenodd">
        <g id="Organization-center" fill="#FFF9C4">
            <path d="M12,6.4741784 C13.5148746,6.4741784 14.8145486,7.0164265 15.899061,8.10093897 C16.9835735,9.18545143 17.5258216,10.4851254 17.5258216,12 C17.5258216,13.5148746 16.9835735,14.8145486 15.899061,15.899061 C14.8145486,16.9835735 13.5148746,17.5258216 12,17.5258216 C10.4851254,17.5258216 9.18545143,16.9835735 8.10093897,15.899061 C7.0164265,14.8145486 6.4741784,13.5148746 6.4741784,12 C6.4741784,10.4851254 7.0164265,9.18545143 8.10093897,8.10093897 C9.18545143,7.0164265 10.4851254,6.4741784 12,6.4741784 Z M12,1 C15.0297491,1 17.62049,2.07588908 19.7723005,4.22769953 C21.9241109,6.37950998 23,8.97025089 23,12 C23,15.0297491 21.9241109,17.62049 19.7723005,19.7723005 C17.62049,21.9241109 15.0297491,23 12,23 C8.97025089,23 6.37950998,21.9241109 4.22769953,19.7723005 C2.07588908,17.62049 1,15.0297491 1,12 C1,8.97025089 2.07588908,6.37950998 4.22769953,4.22769953 C6.37950998,2.07588908 8.97025089,1 12,1 Z M12,20.8309859 C14.4100277,20.8309859 16.4843419,19.9616675 18.2230047,18.2230047 C19.9616675,16.4843419 20.8309859,14.4100277 20.8309859,12 C20.8309859,9.5899723 19.9616675,7.51565815 18.2230047,5.77699531 C16.4843419,4.03833246 14.4100277,3.16901408 12,3.16901408 C9.5899723,3.16901408 7.51565815,4.03833246 5.77699531,5.77699531 C4.03833246,7.51565815 3.16901408,9.5899723 3.16901408,12 C3.16901408,14.4100277 4.03833246,16.4843419 5.77699531,18.2230047 C7.51565815,19.9616675 9.5899723,20.8309859 12,20.8309859 Z" id="A"></path>
        </g>
    </g>
</svg>