<?xml version="1.0" encoding="UTF-8"?>
<svg width="40px" height="40px" viewBox="0 0 40 40" version="1.1" xmlns="http://www.w3.org/2000/svg" xmlns:xlink="http://www.w3.org/1999/xlink">
    <!-- Generator: Sketch 45.1 (43504) - http://www.bohemiancoding.com/sketch -->
    <title>Unknown NW</title>
    <desc>Created with Sketch.</desc>
    <defs>
        <path d="M15,30 C6.716,30 0,23.284 0,15 C0,6.716 6.716,0 15,0 L30,0 L30,15 C30,23.284 23.284,30 15,30 Z" id="path-1"></path>
        <filter x="-15.0%" y="-15.0%" width="130.0%" height="130.0%" filterUnits="objectBoundingBox" id="filter-2">
            <feMorphology radius="0.5" operator="dilate" in="SourceAlpha" result="shadowSpreadOuter1"></feMorphology>
            <feOffset dx="0" dy="0" in="shadowSpreadOuter1" result="shadowOffsetOuter1"></feOffset>
            <feGaussianBlur stdDeviation="1" in="shadowOffsetOuter1" result="shadowBlurOuter1"></feGaussianBlur>
            <feColorMatrix values="0 0 0 0 0   0 0 0 0 0   0 0 0 0 0  0 0 0 0.5 0" type="matrix" in="shadowBlurOuter1"></feColorMatrix>
        </filter>
        <linearGradient x1="50%" y1="0%" x2="50%" y2="100%" id="linearGradient-3">
            <stop stop-color="#8B8B8B" stop-opacity="0.5" offset="0%"></stop>
            <stop stop-color="#8B8B8B" offset="100%"></stop>
        </linearGradient>
        <path d="M13,26 C5.82053333,26 0,20.1794667 0,13 C0,5.82053333 5.82053333,0 13,0 C20.1794667,0 26,5.82053333 26,13 C26,20.1794667 20.1794667,26 13,26 Z" id="path-4"></path>
    </defs>
    <g id="Export-symbols" stroke="none" stroke-width="1" fill="none" fill-rule="evenodd">
        <g id="Unknown-NW">
            <g id="Direction" transform="translate(20.000000, 20.000000) rotate(-90.000000) translate(-20.000000, -20.000000) translate(5.000000, 5.000000)">
                <g id="Outer-circle">
                    <use fill="black" fill-opacity="1" filter="url(#filter-2)" xlink:href="#path-1"></use>
                    <use fill="#FFFFFF" fill-rule="evenodd" xlink:href="#path-1"></use>
                </g>
                <path d="M15,28 C7.82053333,28 2,22.1794667 2,15 C2,7.82053333 7.82053333,2 15,2 C22.1794667,2 28,7.82053333 28,15 C28,22.1794667 22.1794667,28 15,28 Z" id="Symbol-background" fill="#FEFEFE" fill-rule="evenodd"></path>
            </g>
            <g id="Unknown-symbol" transform="translate(5.000000, 5.000000)">
                <g id="Symbol" transform="translate(2.000000, 2.000000)">
                    <g id="Outer-circle">
                        <use fill="url(#linearGradient-3)" fill-rule="evenodd" xlink:href="#path-4"></use>
                        <path stroke-opacity="0.1" stroke="#000000" stroke-width="1" d="M13,25.5 C19.9033243,25.5 25.5,19.9033243 25.5,13 C25.5,6.09667571 19.9033243,0.5 13,0.5 C6.09667571,0.5 0.5,6.09667571 0.5,13 C0.5,19.9033243 6.09667571,25.5 13,25.5 Z"></path>
                    </g>
                    <g id="Unknown" transform="translate(7.000000, 4.000000)" fill="#FEFEFE">
                        <path d="M4.15718623,12.1406145 C4.15718623,11.6482514 4.17028018,11.2308194 4.19646849,10.8883059 C4.2226568,10.5457924 4.28438546,10.2371782 4.38165632,9.96245383 C4.47892719,9.68772949 4.62483129,9.43441604 4.81937302,9.20250588 C5.01391474,8.97059572 5.2870173,8.72263396 5.63868888,8.45861316 C5.89308959,8.23740655 6.14748649,8.00371597 6.40188721,7.75753442 C6.65628793,7.51135287 6.88636748,7.25803942 7.09213276,6.99758647 C7.29789805,6.73713352 7.46437838,6.47133279 7.59157873,6.20017629 C7.71877909,5.9290198 7.78237832,5.65786737 7.78237832,5.38671088 C7.78237832,4.73736243 7.5990629,4.26284569 7.23242658,3.96314641 C6.86579025,3.66344712 6.33080853,3.51359973 5.62746537,3.51359973 C5.35809991,3.51359973 5.09622074,3.54749378 4.84182003,3.61528291 C4.58741931,3.68307203 4.36108089,3.79188978 4.16279798,3.94173942 C3.96451507,4.09158906 3.80364644,4.28425 3.68018727,4.51972801 C3.55672809,4.75520601 3.4912583,5.03706182 3.48377593,5.3653039 L0.352418055,5.3653039 C0.359900429,4.63746278 0.502063403,4.00417915 0.778911242,3.46543402 C1.05575908,2.92668888 1.42987217,2.4789306 1.90126173,2.12214574 C2.3726513,1.76536088 2.92633867,1.49956014 3.56234046,1.32473556 C4.19834226,1.14991098 4.88671034,1.0625 5.62746537,1.0625 C6.45800889,1.0625 7.20249394,1.15169488 7.86094285,1.33008731 C8.51939177,1.50847974 9.07494971,1.77428047 9.52763333,2.12749748 C9.98031696,2.48071449 10.3263716,2.91776939 10.5658075,3.43867529 C10.8052435,3.95958118 10.9249597,4.56253855 10.9249597,5.24756548 C10.9249597,5.75419998 10.8351726,6.21622944 10.6555956,6.63366773 C10.4760186,7.05110602 10.2440685,7.43999568 9.95973827,7.80034839 C9.67540806,8.1607011 9.35180024,8.50320942 8.9889051,8.82788365 C8.62600996,9.15255787 8.26124969,9.46830773 7.89461337,9.77514271 C7.67014215,9.98921363 7.49430899,10.1783068 7.36710864,10.3424278 C7.23990828,10.5065488 7.14825057,10.6742352 7.09213276,10.8454919 C7.03601496,11.0167487 7.00047422,11.2040579 6.98550947,11.4074253 C6.97054472,11.6107927 6.96306246,11.8551866 6.96306246,12.1406145 L4.15718623,12.1406145 Z M3.69702252,15.3837727 C3.69702252,15.1482947 3.73817496,14.9288753 3.82048108,14.7255079 C3.90278719,14.5221405 4.02250338,14.3455347 4.17963324,14.195685 C4.33676309,14.0458354 4.52756077,13.929882 4.75203199,13.8478215 C4.97650321,13.765761 5.23090011,13.7247314 5.51523032,13.7247314 C5.79207816,13.7247314 6.0446045,13.765761 6.2728169,13.8478215 C6.50102931,13.929882 6.69369755,14.0458354 6.85082741,14.195685 C7.00795726,14.3455347 7.12954402,14.5221405 7.21559132,14.7255079 C7.30163862,14.9288753 7.34466163,15.1482947 7.34466163,15.3837727 C7.34466163,15.612115 7.30163862,15.8261827 7.21559132,16.0259822 C7.12954402,16.2257817 7.00795726,16.3970359 6.85082741,16.5397498 C6.69369755,16.6824638 6.50102931,16.7948493 6.2728169,16.8769098 C6.0446045,16.9589704 5.79207816,17 5.51523032,17 C5.23090011,17 4.97650321,16.9589704 4.75203199,16.8769098 C4.52756077,16.7948493 4.33676309,16.6824638 4.17963324,16.5397498 C4.02250338,16.3970359 3.90278719,16.2257817 3.82048108,16.0259822 C3.73817496,15.8261827 3.69702252,15.612115 3.69702252,15.3837727 Z" id="undefined"></path>
                    </g>
                </g>
            </g>
        </g>
    </g>
</svg>