<?xml version="1.0" encoding="UTF-8" standalone="no"?>
<svg
   xmlns:dc="http://purl.org/dc/elements/1.1/"
   xmlns:cc="http://creativecommons.org/ns#"
   xmlns:rdf="http://www.w3.org/1999/02/22-rdf-syntax-ns#"
   xmlns:svg="http://www.w3.org/2000/svg"
   xmlns="http://www.w3.org/2000/svg"
   xmlns:xlink="http://www.w3.org/1999/xlink"
   xmlns:sodipodi="http://sodipodi.sourceforge.net/DTD/sodipodi-0.dtd"
   xmlns:inkscape="http://www.inkscape.org/namespaces/inkscape"
   width="26px"
   height="33px"
   viewBox="0 0 26 33"
   version="1.1"
   id="svg30"
   sodipodi:docname="Stop_sign2.svg"
   inkscape:version="0.92.2 (5c3e80d, 2017-08-06)">
  <metadata
     id="metadata34">
    <rdf:RDF>
      <cc:Work
         rdf:about="">
        <dc:format>image/svg+xml</dc:format>
        <dc:type
           rdf:resource="http://purl.org/dc/dcmitype/StillImage" />
        <dc:title>Stop sign</dc:title>
      </cc:Work>
    </rdf:RDF>
  </metadata>
  <sodipodi:namedview
     pagecolor="#ffffff"
     bordercolor="#666666"
     borderopacity="1"
     objecttolerance="10"
     gridtolerance="10"
     guidetolerance="10"
     inkscape:pageopacity="0"
     inkscape:pageshadow="2"
     inkscape:window-width="1920"
     inkscape:window-height="1017"
     id="namedview32"
     showgrid="false"
     inkscape:zoom="14.30303"
     inkscape:cx="2.8420904"
     inkscape:cy="12.825656"
     inkscape:window-x="1912"
     inkscape:window-y="-8"
     inkscape:window-maximized="1"
     inkscape:current-layer="svg30" />
  <!-- Generator: Sketch 50.2 (55047) - http://www.bohemiancoding.com/sketch -->
  <title
     id="title2">Stop sign</title>
  <desc
     id="desc4">Created with Sketch.</desc>
  <defs
     id="defs16">
    <path
       d="M10,26.6666667 C16.6666667,18.9079336 20,13.2462377 20,9.6815788 C20,4.33459047 15.5228475,0 10,0 C4.4771525,0 0,4.33459047 0,9.6815788 C0,13.2462377 3.33333333,18.9079336 10,26.6666667 Z"
       id="path-1" />
    <filter
       x="-22.5%"
       y="-16.9%"
       width="145.0%"
       height="133.7%"
       filterUnits="objectBoundingBox"
       id="filter-2">
      <feMorphology
         radius="0.5"
         operator="dilate"
         in="SourceAlpha"
         result="shadowSpreadOuter1"
         id="feMorphology7" />
      <feOffset
         dx="0"
         dy="0"
         in="shadowSpreadOuter1"
         result="shadowOffsetOuter1"
         id="feOffset9" />
      <feGaussianBlur
         stdDeviation="1"
         in="shadowOffsetOuter1"
         result="shadowBlurOuter1"
         id="feGaussianBlur11" />
      <feColorMatrix
         values="0 0 0 0 0   0 0 0 0 0   0 0 0 0 0  0 0 0 0.5 0"
         type="matrix"
         in="shadowBlurOuter1"
         id="feColorMatrix13" />
    </filter>
  </defs>
  <g
     id="Styleguide"
     stroke="none"
     stroke-width="1"
     fill="none"
     fill-rule="evenodd">
    <g
       id="Map-styleguide"
       transform="translate(-1470.000000, -752.000000)">
      <g
         id="Large-zoom-symbols"
         transform="translate(1300.000000, 217.000000)">
        <g
           id="Signs"
           transform="translate(42.000000, 538.000000)">
          <g
             id="Stop-sign"
             transform="translate(131.000000, 0.000000)">
            <g
               id="Oval-6">
              <use
                 fill="black"
                 fill-opacity="1"
                 filter="url(#filter-2)"
                 xlink:href="#path-1"
                 id="use18" />
              <use
                 fill="#EE6337"
                 fill-rule="evenodd"
                 xlink:href="#path-1"
                 id="use20"
                 style="fill:#5c6bc0;fill-opacity:1" />
            </g>
            <circle
               id="Oval"
               fill="#FFFFFF"
               cx="10"
               cy="10"
               r="7" />
            <path
               d="M11.9892578,12.4365234 C11.9892578,11.9990212 11.8354508,11.661785 11.527832,11.4248047 C11.2202133,11.1878243 10.6653686,10.9485689 9.86328125,10.7070312 C9.06119391,10.4654936 8.42317945,10.1966161 7.94921875,9.90039062 C7.04231317,9.33072632 6.58886719,8.58789521 6.58886719,7.671875 C6.58886719,6.86978766 6.91584959,6.20898697 7.56982422,5.68945312 C8.22379884,5.16991928 9.07258593,4.91015625 10.1162109,4.91015625 C10.8089227,4.91015625 11.4264296,5.03775914 11.96875,5.29296875 C12.5110704,5.54817836 12.9371729,5.91161874 13.2470703,6.38330078 C13.5569677,6.85498283 13.7119141,7.37792682 13.7119141,7.95214844 L11.9892578,7.95214844 C11.9892578,7.43261459 11.8263363,7.02588038 11.5004883,6.73193359 C11.1746403,6.43798681 10.7086619,6.29101562 10.1025391,6.29101562 C9.53743207,6.29101562 9.09879713,6.41178265 8.78662109,6.65332031 C8.47444505,6.89485798 8.31835938,7.23209419 8.31835938,7.66503906 C8.31835938,8.02962422 8.48697748,8.3338204 8.82421875,8.57763672 C9.16146002,8.82145304 9.71744404,9.05842984 10.4921875,9.28857422 C11.266931,9.5187186 11.888995,9.78076025 12.3583984,10.074707 C12.8278018,10.3686538 13.1718739,10.70589 13.390625,11.0864258 C13.6093761,11.4669615 13.71875,11.9124323 13.71875,12.4228516 C13.71875,13.2522828 13.4008821,13.9119442 12.7651367,14.4018555 C12.1293914,14.8917668 11.2669325,15.1367188 10.1777344,15.1367188 C9.45767869,15.1367188 8.7957387,15.0034193 8.19189453,14.7368164 C7.58805037,14.4702135 7.11865402,14.1022159 6.78369141,13.6328125 C6.44872879,13.1634091 6.28125,12.6165396 6.28125,11.9921875 L8.01074219,11.9921875 C8.01074219,12.5572945 8.19758928,12.9947901 8.57128906,13.3046875 C8.94498885,13.6145849 9.48046526,13.7695312 10.1777344,13.7695312 C10.7792999,13.7695312 11.2316066,13.6476249 11.534668,13.4038086 C11.8377294,13.1599923 11.9892578,12.8375671 11.9892578,12.4365234 Z"
               id="S"
               fill="#000000" />
          </g>
        </g>
      </g>
    </g>
  </g>
</svg>
