<?xml version="1.0" encoding="UTF-8"?>
<svg width="388px" height="616px" viewBox="0 0 388 616" version="1.1" xmlns="http://www.w3.org/2000/svg" xmlns:xlink="http://www.w3.org/1999/xlink">
    <!-- Generator: sketchtool 41.1 (35376) - http://www.bohemiancoding.com/sketch -->
    <title>FCB900F3-7447-482A-BCA7-5C4671EA37C4</title>
    <desc>Created with sketchtool.</desc>
    <defs></defs>
    <g id="iqs"><path transform="translate(512,0) scale(-1,1) rotate(180,256,256)" d="M472 179l-17 0-31 92c-1 3-4 5-7 5l-23 0-32 77c-1 3-4 5-7 5l-15 0-30 54c-2 3-7 5-10 3l-42-23-25 11c-3 2-7 1-9-2l-41-48-19 4c-4 1-7-1-9-4l-34-67-27 0c-3 0-6-2-7-5l-24-59-10 4c-2 1-4 1-6 1-2-1-3-3-4-5l-18-43-17 0c-5 0-8-3-8-7 0-5 3-8 8-8l464 0c5 0 8 3 8 8 0 4-3 7-8 7z m-378 0l10 16 20 3 11-19z m80 0l15 105 10 0-15-105z m147 120l-141 0 0 10 141 0z m-35-15l16-105-103 0 16 105z m31-105l-15 105 10 0 15-105z m55 0l8 16 14 3 9-19z m48 0l-15 31c-1 3-5 5-8 4l-23-4c-3-1-5-2-6-4l-13-27-13 0-15 105 2 0c4 0 7 4 7 8l0 25c0 4-3 7-7 7l-157 0c-4 0-7-3-7-7l0-25c0-4 3-8 7-8l2 0-15-105-6 0-19 32c-1 2-4 4-8 3l-28-4c-2-1-4-2-5-4l-17-27-34 0 12 30 10-4c2-1 4-1 6-1 2 1 4 3 4 5l25 62 15 0-14-30c-2-4-1-9 3-11 1 0 2 0 4 0 2 0 5 1 6 4l53 107 45-11c1 0 2-1 2-1 4 0 7 3 8 6 1 4-2 8-6 9l-15 4 32 39 9-4-13-7c-4-1-5-6-3-10 1-2 3-4 6-4 1 0 3 0 4 1l65 35 22-40-20 0c-4 0-8-4-8-8 0-4 4-8 8-8l48 0 41-103c1-3 4-5 7-5 1 0 2 0 3 1 4 1 6 5 4 9l-6 17 12 0 28-82z m19 129c-8 0-14-7-14-15 0-8 6-14 14-14 8 0 15 6 15 14 0 8-7 15-15 15z m-30 16l10-10c11 11 29 11 41 0l10 10c-17 17-44 17-61 0z m-21 21l11-10c22 22 59 22 81 0l10 10c-28 28-74 28-102 0z m-20 20l10-10c34 34 89 34 122 0l11 10c-40 40-104 40-143 0z m-223 59c-7 0-14-6-14-14 0-8 7-15 14-15 8 0 15 7 15 15 0 8-7 14-15 14z m-30 17l10-11c11 12 30 12 41 0l10 11c-17 17-44 17-61 0z m-20 20l10-10c22 23 59 23 81 0l10 10c-28 29-73 29-101 0z m-21 21l10-11c34 35 89 35 123 0l10 11c-40 39-103 39-143 0z"/></g>
</svg>

