<?xml version="1.0" standalone="no"?>
<!DOCTYPE svg PUBLIC "-//W3C//DTD SVG 1.1//EN" "http://www.w3.org/Graphics/SVG/1.1/DTD/svg11.dtd">
<svg xmlns="http://www.w3.org/2000/svg">
<defs>

<g id="chevron-down"   viewBox="0 0 512 512">
      <path  d="M354 183l-98 98-98-98-30 30 128 128 128-128z"/></g>
<g id="chevron-left"   viewBox="0 0 512 512">
      <path  d="M329 354l-30 30-128-128 128-128 30 30-98 98z"/></g>
<g id="chevron-right"   viewBox="0 0 512 512">
      <path  d="M213 384l-30-30 98-98-98-98 30-30 128 128z"/></g>
<g id="chevron-up"   viewBox="0 0 512 512">
      <path  d="M256 171l-128 128 30 30 98-98 98 98 30-30z"/></g>
<g id="chevron-big-left"   viewBox="0 0 512 512">
      <path  d="M338 448l28-28-164-164 164-164-28-28-192 192z"/></g>
<g id="chevron-big-right"   viewBox="0 0 512 512">
      <path  d="M174 64l-28 28 164 164-164 164 28 28 192-192z"/></g>
<g id="arrow-down"   viewBox="0 0 512 512">
      <path  d="M256 51l205 205-36 36-143-144 0 313-52 0 0-313-143 144-36-36z"/></g>
<g id="arrow-left"   viewBox="0 0 512 512">
      <path  d="M427 277l-260 0 119 119-30 31-171-171 171-171 30 31-119 119 260 0z"/></g>
<g id="arrow-right"   viewBox="0 0 512 512">
      <path  d="M256 427l-30-31 119-119-260 0 0-42 260 0-119-119 30-31 171 171z"/></g>
<g id="arrow-up"   viewBox="0 0 512 512">
      <path  d="M256 461l-205-205 36-36 143 144 0-313 52 0 0 313 143-144 36 36z"/></g>
<g id="triangle-down"   viewBox="0 0 512 512">
      <path  d="M149 213l107 107 107-107z"/></g>
<g id="triangle-right"   viewBox="0 0 512 512">
      <path  d="M205 358l102-102-102-102z"/></g>
<g id="triangle-up"   viewBox="0 0 512 512">
      <path  d="M149 299l107-107 107 107z"/></g>
<g id="plus"  viewBox="0 0 512 512">
      <path  d="M405 235l-128 0 0-128-42 0 0 128-128 0 0 42 128 0 0 128 42 0 0-128 128 0z"/></g>
<g id="minus"  viewBox="0 0 512 512">
      <path  d="M405 235l-298 0 0 42 298 0z"/></g>
<g id="cross"   viewBox="0 0 512 512">
      <path  d="M405 375l-30 30-119-119-119 119-30-30 119-119-119-119 30-30 119 119 119-119 30 30-119 119z"/></g>
<g id="check"   viewBox="0 0 512 512">
      <path  d="M192 167l-89 89-30-30 119-119 256 256-30 30z"/></g>
<g id="check-all"   viewBox="0 0 512 512">
      <path  d="M384 363l-30 30-135-136 30-30z m91 30l-226-226-89 89-31-30 120-119 256 256z m-466-167l119-119 30 30-119 119z"/></g>
<g id="reject"   viewBox="0 0 512 512">
      <path  d="M256 469c-118 0-213-95-213-213 0-118 95-213 213-213 118 0 213 95 213 213 0 118-95 213-213 213z m-171-213c0 94 77 171 171 171 39 0 76-14 105-36l-240-240c-22 29-36 66-36 105z m171-171c-39 0-76 14-105 36l240 240c22-29 36-66 36-105 0-94-77-171-171-171z"/></g>
<g id="vdots"   viewBox="0 0 512 512">
      <path  d="M256 341c24 0 43 19 43 43 0 24-19 43-43 43-24 0-43-19-43-43 0-24 19-43 43-43z m0-42c-24 0-43-19-43-43 0-24 19-43 43-43 24 0 43 19 43 43 0 24-19 43-43 43z m0-128c-24 0-43-19-43-43 0-24 19-43 43-43 24 0 43 19 43 43 0 24-19 43-43 43z"/></g>
<g id="dots"  viewBox="0 0 512 512">
      <path  d="M128 299c-24 0-43-19-43-43 0-24 19-43 43-43 24 0 43 19 43 43 0 24-19 43-43 43z m256 0c-24 0-43-19-43-43 0-24 19-43 43-43 24 0 43 19 43 43 0 24-19 43-43 43z m-128 0c-24 0-43-19-43-43 0-24 19-43 43-43 24 0 43 19 43 43 0 24-19 43-43 43z"/></g>
<g id="handle"   viewBox="0 0 512 512">
      <path  d="M164 325c0-25-21-46-46-46-26 0-46 21-46 46 0 26 20 46 46 46 25 0 46-20 46-46z m138 0c0-25-21-46-46-46-25 0-46 21-46 46 0 26 21 46 46 46 25 0 46-20 46-46z m138 0c0-25-20-46-46-46-25 0-46 21-46 46 0 26 21 46 46 46 26 0 46-20 46-46z m-276-138c0-26-21-46-46-46-26 0-46 20-46 46 0 25 20 46 46 46 25 0 46-21 46-46z m138 0c0-26-21-46-46-46-25 0-46 20-46 46 0 25 21 46 46 46 25 0 46-21 46-46z m138 0c0-26-20-46-46-46-25 0-46 20-46 46 0 25 21 46 46 46 26 0 46-21 46-46z"/></g>
<g id="vhandle"   viewBox="0 0 512 512">
      <path  d="M371 394c0-25-20-46-46-46-25 0-46 21-46 46 0 26 21 46 46 46 26 0 46-20 46-46z m0-138c0-25-20-46-46-46-25 0-46 21-46 46 0 25 21 46 46 46 26 0 46-21 46-46z m0-138c0-26-20-46-46-46-25 0-46 20-46 46 0 25 21 46 46 46 26 0 46-21 46-46z m-138 276c0-25-21-46-46-46-26 0-46 21-46 46 0 26 20 46 46 46 25 0 46-20 46-46z m0-138c0-25-21-46-46-46-26 0-46 21-46 46 0 25 20 46 46 46 25 0 46-21 46-46z m0-138c0-26-21-46-46-46-26 0-46 20-46 46 0 25 20 46 46 46 25 0 46-21 46-46z"/></g>
<g id="checkbox-on"  viewBox="0 0 512 512">
      <path  d="M405 448l-298 0c-24 0-43-19-43-43l0-298c0-24 19-43 43-43l298 0c24 0 43 19 43 43l0 298c0 24-19 43-43 43z m-192-299l-106 107 30 30 76-76 162 162 30-31z"/></g>
<g id="checkbox-off"   viewBox="0 0 512 512">
      <path  d="M405 405l0-298-298 0 0 298z m0 43l-298 0c-24 0-43-19-43-43l0-298c0-24 19-43 43-43l298 0c24 0 43 19 43 43l0 298c0 24-19 43-43 43z"/></g>
<g id="radio-off"   viewBox="0 0 512 512">
      <path  d="M256 469c-118 0-213-95-213-213 0-118 95-213 213-213 118 0 213 95 213 213 0 118-95 213-213 213z m0-384c-94 0-171 77-171 171 0 94 77 171 171 171 94 0 171-77 171-171 0-94-77-171-171-171z"/></g>
<g id="radio-on" unicode="&#65;"  viewBox="0 0 512 512">       <path  d="M256 363c-59 0-107-48-107-107 0-59 48-107 107-107 59 0 107 48 107 107 0 59-48 107-107 107z m0 106c-118 0-213-95-213-213 0-118 95-213 213-213 118 0 213 95 213 213 0 118-95 213-213 213z m0-384c-94 0-171 77-171 171 0 94 77 171 171 171 94 0 171-77 171-171 0-94-77-171-171-171z"/></g>
<g id="circle" unicode="&#66;"  viewBox="0 0 512 512">       <path  d="M256 469c-118 0-213-95-213-213 0-118 95-213 213-213 118 0 213 95 213 213 0 118-95 213-213 213z"/></g>
<g id="minus-circle" unicode="&#67;"  viewBox="0 0 512 512">       <path  d="M256 469c-118 0-213-95-213-213 0-118 95-213 213-213 118 0 213 95 213 213 0 118-95 213-213 213z m107-234l-214 0 0 42 214 0z"/></g>
<g id="plus-circle" unicode="&#68;"  viewBox="0 0 512 512">       <path  d="M256 469c-118 0-213-95-213-213 0-118 95-213 213-213 118 0 213 95 213 213 0 118-95 213-213 213z m107-234l-86 0 0-86-42 0 0 86-86 0 0 42 86 0 0 86 42 0 0-86 86 0z"/></g>
<g id="cross-circle" unicode="&#69;"  viewBox="0 0 512 512">       <path  d="M256 469c-118 0-213-95-213-213 0-118 95-213 213-213 118 0 213 95 213 213 0 118-95 213-213 213z m107-289l-31-31-76 77-76-77-31 31 77 76-77 76 31 31 76-77 76 77 31-31-77-76z"/></g>
<g id="warn-circle" unicode="&#70;"  viewBox="0 0 512 512">       <path  d="M256 469c-118 0-213-95-213-213 0-118 95-213 213-213 118 0 213 95 213 213 0 118-95 213-213 213z m21-320l-42 0 0 43 42 0z m0 86l-42 0 0 128 42 0z"/></g>
<g id="star-circle" unicode="&#71;"  viewBox="0 0 512 512">       <path  d="M256 469c-118 0-213-95-213-213 0-118 95-213 213-213 118 0 213 95 213 213 0 118-95 213-213 213z m90-341l-90 54-90-54 24 103-80 69 105 9 41 96 41-96 105-9-80-69z"/></g>
<g id="info-circle" unicode="&#72;"  viewBox="0 0 512 512">       <path  d="M256 469c-118 0-213-95-213-213 0-118 95-213 213-213 118 0 213 95 213 213 0 118-95 213-213 213z m21-320l-42 0 0 128 42 0z m0 171l-42 0 0 43 42 0z"/></g>
<g id="down-circle" unicode="&#73;"  viewBox="0 0 512 512">       <path  d="M256 469c-118 0-213-95-213-213 0-118 95-213 213-213 118 0 213 95 213 213 0 118-95 213-213 213z m0-256l-85 86 170 0z"/></g>
<g id="person" unicode="&#74;"  viewBox="0 0 512 512">       <path  d="M256 256c47 0 85 38 85 85 0 47-38 86-85 86-47 0-85-39-85-86 0-47 38-85 85-85z m0-43c-57 0-171-28-171-85l0-43 342 0 0 43c0 57-114 85-171 85z"/></g>
<g id="people" unicode="&#75;"  viewBox="0 0 512 512">       <path  d="M341 235c36 0 64-29 64-64 0-36-28-64-64-64-35 0-64 28-64 64 0 35 29 64 64 64zm-170 0c35 0 63-29 63-64 0-36-28-64-63-64-36 0-64 28-64 64 0 35 28 64 64 64zm0 42c-50 0-150 25-150 75l0 53 299 0 0-53c0-50-100-75-149-75zm170 0c-6 0-13 1-20 2 24 17 42 41 42 73l0 53 128 0 0-53c0-50-100-75-150-75z"/></g>
<g id="person-white" unicode="&#76;"  viewBox="0 0 512 512">       <path  d="M256 126c25 0 45 20 45 45 0 24-20 44-45 44-25 0-45-20-45-44 0-25 20-45 45-45zm0 192c63 0 130 31 130 45l0 23-260 0 0-23c0-14 67-45 130-45zm0-233c-47 0-85 39-85 86 0 47 38 85 85 85 47 0 85-38 85-85 0-47-38-86-85-86zm0 192c-57 0-171 29-171 86l0 64 342 0 0-64c0-57-114-86-171-86z"/></g>
<g id="people-white" unicode="&#77;"  viewBox="0 0 512 512">       <path  d="M352 235c-26 0-66-7-96-22-30 15-70 22-96 22-46 0-139-23-139-70l0-58 470 0 0 58c0 47-93 70-139 70z m-85-96l-214 0 0 26c0 12 55 38 107 38 52 0 107-26 107-38l0-26z m192 0l-160 0 0 26c0 10-5 19-11 26 18 7 41 12 64 12 52 0 107-26 107-38l0-26z m-299 117c41 0 75 33 75 75 0 41-34 74-75 74-41 0-75-33-75-74 0-42 34-75 75-75z m0 117c24 0 43-19 43-42 0-24-19-43-43-43-24 0-43 19-43 43 0 23 19 42 43 42z m192-117c41 0 75 33 75 75 0 41-34 74-75 74-41 0-75-33-75-74 0-42 34-75 75-75z m0 117c24 0 43-19 43-42 0-24-19-43-43-43-24 0-43 19-43 43 0 23 19 42 43 42z"/></g>
<g id="people-plus" unicode="&#79;"  viewBox="0 0 512 512">       <path  d="M171 299l-64 0 0 64-43 0 0-64-64 0 0-43 64 0 0-64 43 0 0 64 64 0z m213-22c35 0 64 29 64 64 0 36-29 64-64 64-7 0-13-1-20-3 13-17 20-38 20-61 0-22-7-43-20-61 7-2 13-3 20-3z m-107 0c36 0 64 29 64 64 0 36-28 64-64 64-35 0-64-28-64-64 0-35 29-64 64-64z m142-46c17-15 29-35 29-60l0-43 64 0 0 43c0 33-51 53-93 60z m-142 4c-42 0-128-22-128-64l0-43 256 0 0 43c0 42-85 64-128 64z"/></g>
<g id="person-plus" unicode="&#80;"  viewBox="0 0 512 512">       <path  d="M320 256c47 0 85 38 85 85 0 47-38 86-85 86-47 0-85-39-85-86 0-47 38-85 85-85z m-192 43l0 64-43 0 0-64-64 0 0-43 64 0 0-64 43 0 0 64 64 0 0 43z m192-86c-57 0-171-28-171-85l0-43 342 0 0 43c0 57-114 85-171 85z"/></g>
<g id="people-circle" unicode="&#81;"  viewBox="0 0 512 512">       <path  d="M445 335c-10 26-25 46-43 67-18 18-41 33-67 43-25 11-51 16-79 16-28 0-54-5-79-16-26-10-49-25-67-43-18-21-33-41-43-67-11-25-16-51-16-79 0-28 5-54 16-79 10-26 25-46 43-67 18-18 41-33 67-43 48-21 110-21 158 0 26 10 46 25 67 43 18 18 33 41 43 67 11 25 16 51 16 79 0 28-5 54-16 79z m-92-15c16 0 28-13 28-28 0-16-12-28-28-28-15 0-28 12-28 28 3 15 13 28 28 28z m-97 20c23 0 41-17 41-40 0-24-18-41-41-41-23 0-41 17-41 41 0 23 18 40 41 40z m-97-20c15 0 28-13 28-28 0-16-13-28-28-28-16 0-28 12-28 28 0 15 12 28 28 28z m-5-128l-57 0 0 18c0 0 16 36 62 36 18 0 28-5 38-10-33-18-43-44-43-44z m184-28l-164 0 0 23c0 0 21 46 82 46 61 0 82-46 82-46z m77 25l-57 0c0 3-12 29-43 44 10 5 23 10 38 10 46 0 62-36 62-36z"/></g>
<g id="person-square" unicode="&#83;"  viewBox="0 0 512 512">       <path  d="M64 405l0-298c0-24 19-43 43-43l298 0c24 0 43 19 43 43l0 298c0 24-19 43-43 43l-298 0c-24 0-43-19-43-43z m256-85c0-35-29-64-64-64-35 0-64 29-64 64 0 35 29 64 64 64 35 0 64-29 64-64z m-192-171c0 43 85 66 128 66 43 0 128-23 128-66l0-21-256 0z"/></g>
<g id="person-minus" unicode="&#84;"  viewBox="0 0 512 512">       <path  d="M200 292l-149 0 0-36 149 0z m248-115c-10 10-23 18-41 23-15 5-31 10-49 12-18 3-30 6-43 6-13 0-28-3-44-6-18-2-33-7-48-12-16-5-28-13-41-23-10-11-16-21-16-34l0-38 300 0 0 38c-3 13-8 23-18 34z m-187 102c8-8 15-13 23-15 10-5 18-5 28-5 11 0 21 2 28 5 11 5 18 10 24 15 7 8 12 15 15 23 5 10 5 18 5 28 0 10-3 21-5 28-5 11-10 18-15 23-8 8-16 13-24 16-10 2-17 5-28 5-10 0-20-3-28-5-10-3-18-10-23-16-5-5-10-12-15-20-3-10-5-21-5-31 0-10 2-20 5-28 5-10 10-18 15-23z"/></g>
<g id="person-circle" unicode="&#85;"  viewBox="0 0 512 512">       <path  d="M256 469c-118 0-213-95-213-213 0-118 95-213 213-213 118 0 213 95 213 213 0 118-95 213-213 213z m0-64c35 0 64-28 64-64 0-35-29-64-64-64-35 0-64 29-64 64 0 36 29 64 64 64z m0-303c-53 0-100 28-128 69 1 42 85 66 128 66 43 0 127-24 128-66-28-41-75-69-128-69z"/></g>
<g id="person-star" unicode="&#86;"  viewBox="0 0 512 512">       <path  d="M143 264l54 15-8 28-51-18 0 59-28 0 3-59-54 21-8-28 51-16-33-48 23-16 31 49 31-51 23 18z m302-87c-10 10-23 18-41 23-15 5-30 10-48 12-18 3-31 6-44 6-12 0-28-3-43-6-18-2-33-7-49-12-15-5-28-13-41-23-10-11-15-21-15-34l0-38 297 0 0 38c0 13-5 23-16 34z m-186 102c7-8 15-13 23-15 10-5 18-5 28-5 10 0 20 2 28 5 10 5 18 10 23 15 8 8 13 15 15 23 5 10 5 18 5 28 0 10-2 21-5 28-5 11-10 18-15 23-8 8-15 13-23 16-10 2-18 5-28 5-10 0-18 2-28-3-11-2-18-10-23-15-8-8-13-15-16-23-5-10-7-21-7-31 0-10 2-20 5-28 5-10 10-18 18-23z"/></g>
<g id="person-message" unicode="&#87;"  viewBox="0 0 512 512">       <path  d="M448 341l0 22-64-43-64 43 0-22 64-42z m21 107l-426 0c-24 0-43-19-43-43l0-298c0-24 19-43 43-43l426 0c24 0 43 19 43 43l0 298c0 24-19 43-43 43z m-298-64c35 0 64-29 64-64 0-35-29-64-64-64-36 0-64 29-64 64 0 35 28 64 64 64z m128-256l-256 0 0 21c0 43 85 66 128 66 42 0 128-23 128-66z m170 128l-170 0 0 128 170 0z"/></g>
<g id="text" unicode="&#88;"  viewBox="0 0 512 512">       <path  d="M417 404l-128 0 0-353-71 0 0 353-126 0 0 57 325 0z"/></g>
<g id="weblink" unicode="&#89;"  viewBox="0 0 512 512">       <path  d="M309 341l34-34-136-136-34 34z m144 46c-5 15-15 28-25 41-13 12-26 20-41 25-16 5-31 8-47 8-15 0-30-3-46-10-15-6-28-16-38-26l-36-36c-18-18-18-46 0-64l67 67c7 7 15 12 25 15 11 3 18 5 28 5 11 0 18-2 29-5 10-3 18-10 25-15 8-8 13-16 16-26 2-10 5-18 5-28 0-10-3-18-5-28-3-10-11-18-16-26l-66-66c18-18 46-18 64 0l36 35c12 13 20 26 25 39 5 18 8 33 8 48 0 16-3 31-8 47z m-225-264l-3-3c-7-7-15-12-25-15-11-3-18-5-28-5-11 0-18 2-29 5-10 3-18 10-25 15-8 8-13 16-16 26-2 10-5 18-5 28 0 10 3 18 5 28 3 10 11 18 16 26l66 66c-18 18-46 18-64 0l-33-38c-13-13-20-26-26-38-7-16-10-31-10-46 0-16 3-31 8-47 5-15 15-28 25-41 13-12 26-20 41-25 16-5 31-8 47-8 15 0 30 3 46 8 15 5 28 15 38 25l36 36c18 18 18 46 0 64z"/></g>
<g id="images" unicode="&#90;"  viewBox="0 0 512 512">       <path  d="M469 171l0 256c0 23-19 42-42 42l-256 0c-24 0-43-19-43-42l0-256c0-24 19-43 43-43l256 0c23 0 42 19 42 43z m-234 85l43-58 63 79 86-106-256 0z m-192 128l0-299c0-23 19-42 42-42l299 0 0 42-299 0 0 299z"/></g>
<g id="attach" unicode="&#48;"  viewBox="0 0 512 512">       <path  d="M352 384l0-245c0-47-38-86-85-86-47 0-86 39-86 86l0 266c0 30 24 54 54 54 29 0 53-24 53-54l0-224c0-11-9-21-21-21-12 0-22 10-22 21l0 203-32 0 0-203c0-29 24-53 54-53 29 0 53 24 53 53l0 224c0 47-38 86-85 86-47 0-86-39-86-86l0-266c0-65 53-118 118-118 64 0 117 53 117 118l0 245z"/></g>
<g id="audio" unicode="&#50;"  viewBox="0 0 512 512">       <path  d="M395 384c-65 0-118-52-118-117 0-29 10-55 27-75l-96 0c17 20 27 46 27 75 0 65-53 117-118 117-65 0-117-52-117-117 0-65 52-118 117-118l278 0c65 0 117 53 117 118 0 65-52 117-117 117z m-278-192c-41 0-74 33-74 75 0 41 33 74 74 74 42 0 75-33 75-74 0-42-33-75-75-75z m278 0c-42 0-75 33-75 75 0 41 33 74 75 74 41 0 74-33 74-74 0-42-33-75-74-75z"/></g>
<g id="time" unicode="&#51;"  viewBox="0 0 512 512">       <path  d="M256 469c-118 0-213-95-213-213 0-118 95-213 213-213 118 0 213 95 213 213 0 118-95 213-213 213z m0-384c-94 0-171 77-171 171 0 94 77 171 171 171 94 0 171-77 171-171 0-94-77-171-171-171z m11 278l-32 0 0-128 112-68 16 27-96 57z"/></g>
<g id="document" unicode="&#53;"  viewBox="0 0 512 512">       <path  d="M299 469l-171 0c-24 0-42-19-42-42l-1-342c0-23 19-42 43-42l256 0c24 0 43 19 43 42l0 256z m42-341l-170 0 0 43 170 0z m0 85l-170 0 0 43 170 0z m-64 107l0 117 118-117z"/></g>
<g id="bell-white" unicode="&#54;"  viewBox="0 0 512 512">       <path  d="M245 43c24 0 43 19 43 42l-85 0c0-23 19-42 42-42z m139 128l0 117c0 66-46 120-107 135l0 14c0 18-14 32-32 32-17 0-32-14-32-32l0-14c-61-15-106-69-106-135l0-117-43-43 0-21 363 0 0 21z m-43-22l-192 0 0 139c0 53 43 96 96 96 53 0 96-43 96-96z"/></g>
<g id="bell" unicode="&#55;"  viewBox="0 0 512 512">       <path  d="M245 43c24 0 43 19 43 42l-85 0c0-23 19-42 42-42z m139 128l0 117c0 66-46 120-107 135l0 14c0 18-14 32-32 32-17 0-32-14-32-32l0-14c-61-15-106-69-106-135l0-117-43-43 0-21 363 0 0 21z"/></g>
<g id="bell-ring" unicode="&#56;"  viewBox="0 0 512 512">       <path  d="M140 436l-30 30c-51-39-85-99-88-167l43 0c3 56 32 106 75 137z m286-137l43 0c-3 68-37 128-88 167l-31-30c44-31 73-81 76-137z m-42-11c0 66-46 120-107 135l0 14c0 18-14 32-32 32-17 0-32-14-32-32l0-14c-61-15-106-69-106-135l0-117-43-43 0-21 363 0 0 21-43 43z m-139-245c3 0 6 0 9 1 14 2 25 12 31 25 2 5 3 10 3 16l-85 0c0-23 19-42 42-42z"/></g>
<g id="bell-snoozed" unicode="&#57;"  viewBox="0 0 512 512">       <path  d="M245 43c24 0 43 19 43 42l-85 0c0-23 19-42 42-42z m139 128l0 117c0 66-46 120-107 135l0 14c0 18-14 32-32 32-17 0-32-14-32-32l0-14c-61-15-106-69-106-135l0-117-43-43 0-21 363 0 0 21z m-85 132l-60-73 60 0 0-38-107 0 0 38 60 73-60 0 0 38 107 0z"/></g>
<g id="search" unicode="&#33;"  viewBox="0 0 512 512">       <path  d="M331 213l-17 0-6 6c21 24 33 56 33 90 0 77-62 139-138 139-77 0-139-62-139-139 0-76 62-138 139-138 34 0 66 12 90 33l6-6 0-17 106-106 32 32z m-128 0c-53 0-96 43-96 96 0 53 43 96 96 96 53 0 96-43 96-96 0-53-43-96-96-96z"/></g>
<g id="search-doc" unicode="&#34;"  viewBox="0 0 512 512">       <path  d="M427 94l0 247-128 128-171 0c-24 0-42-19-42-42l-1-342c0-23 19-42 43-42l256 0c9 0 18 3 25 8l-94 95c-17-11-37-18-59-18-59 0-107 48-107 107 0 59 48 106 107 106 59 0 107-47 107-106 0-22-7-42-18-59z m-235 141c0-36 29-64 64-64 35 0 64 28 64 64 0 35-29 64-64 64-35 0-64-29-64-64z"/></g>
<g id="search-square" unicode="&#35;"  viewBox="0 0 512 512">       <path  d="M235 341c-36 0-64-28-64-64 0-35 28-64 64-64 35 0 64 29 64 64 0 36-29 64-64 64z m170 107l-298 0c-24 0-43-19-43-43l0-298c0-24 19-43 43-43l298 0c24 0 43 19 43 43l0 298c0 24-19 43-43 43z m-30-341l-82 81c-16-11-37-17-58-17-59 0-107 47-107 106 0 59 48 107 107 107 59 0 106-48 106-107 0-21-6-42-17-58l81-82z"/></g>
<g id="search-person" unicode="&#36;"  viewBox="0 0 512 512">       <path  d="M371 330l-20 0-11-10c24-28 39-64 39-105 0-90-74-164-164-164-90 0-164 72-164 164 0 90 74 164 164 164 41 0 77-15 105-39l10 11 0 20 90 90 41-41zm-159-220c24 0 44 21 44 44 0 23-20 43-44 43-23 0-43-20-43-43 0-23 20-44 43-44zm88 159c-6 7-31 46-88 46-56 0-81-39-87-46-2-8 13-39 87-44 77 5 90 36 88 44z"/></g>
<g id="task" unicode="&#39;"  viewBox="0 0 512 512">       <path  d="M405 448l-89 0c-9 25-32 43-60 43-28 0-51-18-60-43l-89 0c-24 0-43-19-43-43l0-298c0-24 19-43 43-43l298 0c24 0 43 19 43 43l0 298c0 24-19 43-43 43z m-149 0c12 0 21-9 21-21 0-12-9-22-21-22-12 0-21 10-21 22 0 12 9 21 21 21z m-43-299l-85 86 30 30 55-55 141 140 30-30z"/></g>
<g id="message" unicode="&#40;"  viewBox="0 0 512 512">       <path  d="M427 427l-342 0c-23 0-42-19-42-43l0-256c0-24 19-43 42-43l342 0c23 0 42 19 42 43l0 256c0 24-19 43-42 43z m0-86l-171-106-171 106 0 43 171-107 171 107z"/></g>
<g id="forward" unicode="&#42;"  viewBox="0 0 512 512">       <path  d="M297 330c-36-5-67-15-92-30-26-16-49-34-67-54-18-21-33-46-43-72-11-26-18-51-23-79 12 18 28 36 43 48 16 13 33 26 51 34 18 10 39 15 62 20 23 5 46 8 72 8l0-87 145 148-145 149 0-85z"/></g>
<g id="forward-all" unicode="&#43;"  viewBox="0 0 512 512">       <path  d="M340 333l0 51 116-120-116-118 0 51 67 67z m-266-141c8 20 21 38 36 56 15 18 33 31 54 44 20 13 46 20 77 25l0 67 117-120-117-121 0 69c-21 0-41-2-59-5-18-2-34-7-49-15-15-8-28-15-41-26-13-10-25-23-36-38 3 20 11 44 18 64z"/></g>
<g id="reply" unicode="&#44;"  viewBox="0 0 512 512">       <path  d="M213 320l0 85-149-149 149-149 0 87c107 0 182-34 235-109-21 107-85 214-235 235z"/></g>
<g id="reply-all" unicode="&#45;"  viewBox="0 0 512 512">       <path  d="M149 341l0 64-149-149 149-149 0 64-85 85z m128-21l0 85-149-149 149-149 0 87c107 0 182-34 235-109-21 107-85 214-235 235z"/></g>
<g id="share" unicode="&#46;"  viewBox="0 0 512 512">       <path  d="M384 169c-16 0-31-6-42-17l-152 89c1 5 2 10 2 15 0 5-1 10-2 15l150 88c12-11 27-18 44-18 35 0 64 29 64 64 0 36-29 64-64 64-35 0-64-28-64-64 0-5 1-10 2-14l-150-88c-12 10-27 17-44 17-35 0-64-29-64-64 0-35 29-64 64-64 17 0 32 7 44 17l152-88c-2-5-2-10-2-14 0-35 28-63 62-63 34 0 62 28 62 63 0 34-28 62-62 62z"/></g>
<g id="comment" unicode="&#47;"  viewBox="0 0 512 512">       <path  d="M427 469l-342 0c-23 0-42-19-42-42l0-384 85 85 299 0c23 0 42 19 42 43l0 256c0 23-19 42-42 42z"/></g>
<g id="hand-up" unicode="&#58;"  viewBox="0 0 512 512">       <path  d="M21 64l86 0 0 256-86 0z m470 235c0 23-19 42-43 42l-135 0 21 98c0 2 0 4 0 7 0 8-3 16-9 22l-23 23-140-141c-8-8-13-18-13-30l0-213c0-24 19-43 43-43l192 0c18 0 33 11 39 26l65 150c1 5 3 11 3 16l0 41-1 0 1 2z"/></g>
<g id="hand-down" unicode="&#59;"  viewBox="0 0 512 512">       <path  d="M320 448l-192 0c-18 0-33-11-39-26l-65-150c-1-5-3-11-3-16l0-41 1 0-1-2c0-23 19-42 43-42l135 0-21-98c0-2 0-4 0-7 0-8 3-16 9-22l23-23 140 141c8 8 13 18 13 30l0 213c0 24-19 43-43 43z m85 0l0-256 86 0 0 256z"/></g>
<g id="menu" unicode="&#91;"  viewBox="0 0 512 512">       <path  d="M43 181l0-42 426 0 0 42z m0 107l0-43 426 0 0 43z m0 107l0-43 426 0 0 43z"/></g>
<g id="list" unicode="&#93;"  viewBox="0 0 512 512">       <path  d="M85 213l86 0 0 86-86 0z m0-106l86 0 0 85-86 0z m0 213l86 0 0 85-86 0z m107-107l256 0 0 86-256 0z m0-106l256 0 0 85-256 0z m0 298l0-85 256 0 0 85z"/></g>
<g id="grid" unicode="&#94;"  viewBox="0 0 512 512">       <path  d="M85 277l107 0 0 128-107 0z m0-149l107 0 0 128-107 0z m128 0l107 0 0 128-107 0z m128 0l107 0 0 128-107 0z m-128 149l107 0 0 128-107 0z m128 128l0-128 107 0 0 128z"/></g>
<g id="submenu" unicode="&#95;"  viewBox="0 0 512 512">       <path  d="M64 235l43 0 0 42-43 0z m0-86l43 0 0 43-43 0z m0 171l43 0 0 43-43 0z m85-85l299 0 0 42-299 0z m0-86l299 0 0 43-299 0z m0 214l0-43 299 0 0 43z"/></g>
<g id="trash" unicode="&#96;"  viewBox="0 0 512 512">       <path  d="M128 107c0-24 19-43 43-43l170 0c24 0 43 19 43 43l0 256-256 0z m277 320l-74 0-22 21-106 0-22-21-74 0 0-43 298 0z"/></g>
<g id="date" unicode="&#123;"  viewBox="0 0 512 512">       <path  d="M405 448l-21 0 0 43-43 0 0-43-170 0 0 43-43 0 0-43-21 0c-24 0-43-19-43-43l0-298c0-24 19-43 43-43l298 0c24 0 43 19 43 43l0 298c0 24-19 43-43 43z m0-341l-298 0 0 234 298 0z m-256 192l107 0 0-107-107 0z"/></g>
<g id="enter" unicode="&#124;"  viewBox="0 0 512 512">       <path  d="M215 180l30-31 107 107-107 107-30-31 55-55-206 0 0-42 206 0z m190 268l-298 0c-24 0-43-19-43-43l0-85 43 0 0 85 298 0 0-298-298 0 0 85-43 0 0-85c0-24 19-43 43-43l298 0c24 0 43 19 43 43l0 298c0 24-19 43-43 43z"/></g>
<g id="exit" unicode="&#125;"  viewBox="0 0 512 512">       <path  d="M97 51c-5 0-13 0-18 3-5 2-10 5-15 10-5 5-8 10-10 15-3 5-3 11-3 18l0 318c0 5 0 13 3 18 2 5 5 10 10 15 5 5 10 8 15 10 5 3 11 3 18 3l320 0c5 0 13 0 18-3 5-2 10-5 16-10 5-5 7-10 10-15 0-5 0-11 0-18l0-92-46 46 0 46-318 0 0-320 320 0 0 43 46 46 0-92c0-5 0-13-2-18-3-5-5-10-10-15-6-5-11-8-16-10-7 2-13 2-20 2z m218 123l59 59-220 0 0 46 220 0-59 59 33 33 113-115-113-113z"/></g>
<g id="note-take" unicode="&#126;"  viewBox="0 0 512 512">       <path  d="M371 402c0 10-7 18-18 18l-248 0c-10 0-18-8-18-18l0-248c0-11 8-18 18-18l159 0 0-36-159 0c-31 0-54 23-54 54l0 248c0 28 23 54 54 54l248 0c28 0 54-23 54-54l0-141-36 0zm87-307-33-34c-5-5-13-5-18 0l-23 21 51 51 21-20c5-5 5-13 2-18zm-253 166 0 51 51 0 166-166-51-49z"/></g>
<g id="refresh" unicode="&#57344;"  viewBox="0 0 512 512">       <path  d="M256 384l0-64 85 85-85 86 0-64c-94 0-171-77-171-171 0-33 10-65 27-91l31 31c-10 18-15 38-15 60 0 71 57 128 128 128z m144-37l-31-31c10-18 15-38 15-60 0-71-57-128-128-128l0 64-85-85 85-86 0 64c94 0 171 77 171 171 0 33-10 65-27 91z"/></g>
<g id="config" unicode="&#92;"  viewBox="0 0 512 512">       <path  d="M415 235c0 7 1 14 1 21 0 7-1 14-1 21l45 35c4 3 5 9 2 14l-42 74c-3 4-9 6-13 4l-54-21c-11 8-23 15-36 21l-8 56c-1 5-5 9-10 9l-86 0c-5 0-9-4-10-9l-8-56c-13-6-25-13-36-21l-53 21c-5 2-11 0-13-4l-43-74c-3-5-2-11 2-14l45-35c0-7-1-14-1-21 0-7 1-14 1-21l-45-35c-4-3-5-9-2-14l43-74c2-4 8-6 13-4l53 21c11-8 23-15 36-21l8-56c1-5 5-9 10-9l86 0c5 0 9 4 10 9l8 56c13 6 25 13 36 21l53-21c5-2 11 0 13 4l43 74c3 5 2 11-2 14z m-159-54c-41 0-75 34-75 75 0 41 34 75 75 75 41 0 75-34 75-75 0-41-34-75-75-75z"/></g>
<g id="config-square" unicode="&#57345;"  viewBox="0 0 512 512">       <path  d="M256 299c-24 0-43-19-43-43 0-24 19-43 43-43 24 0 43 19 43 43 0 24-19 43-43 43z m149 149l-298 0c-24 0-43-19-43-43l0-298c0-24 19-43 43-43l298 0c24 0 43 19 43 43l0 298c0 24-19 43-43 43z m-37-192c0-5 0-10-1-15l32-24c2-3 3-7 1-10l-30-52c-1-3-5-4-9-3l-37 15c-8-6-16-11-25-14l-6-40c0-4-3-6-7-6l-60 0c-4 0-7 2-7 6l-6 40c-9 3-17 8-25 14l-37-15c-4-1-7 0-9 4l-30 51c-2 3-1 8 1 10l32 24c-1 5-1 10-1 15 0 5 0 10 1 15l-32 24c-2 2-3 7-1 10l30 51c2 4 5 5 9 4l37-15c8 6 16 11 25 14l6 40c0 4 3 6 7 6l60 0c4 0 7-2 7-6l6-40c9-3 17-8 25-14l37 15c4 1 7 0 9-4l30-51c2-3 1-8-1-10l-32-24c1-5 1-10 1-15z"/></g>
<g id="world" unicode="&#57346;"  viewBox="0 0 512 512">       <path  d="M256 469c-118 0-213-95-213-213 0-118 95-213 213-213 118 0 213 95 213 213 0 118-95 213-213 213z m-21-382c-84 10-150 82-150 169 0 13 2 26 5 38l102-102 0-21c0-24 19-43 43-43l0-41z m147 54c-6 17-22 30-41 30l-21 0 0 64c0 11-10 21-21 21l-128 0 0 43 42 0c12 0 22 9 22 21l0 43 42 0c24 0 43 19 43 42l0 9c63-25 107-86 107-158 0-44-17-85-45-115z"/></g>
<g id="star-white" unicode="&#57348;"  viewBox="0 0 512 512">       <path  d="M469 315l-153 13-60 141-60-141-153-13 116-101-35-150 132 80 132-80-35 150 116 101z m-213-132l-80-48 21 91-71 62 94 8 36 86 36-86 94-8-71-62 21-91z"/></g>
<g id="star" unicode="&#57349;"  viewBox="0 0 512 512">       <path  d="M256 144l132-80-35 150 116 101-153 13-60 141-60-141-153-13 116-101-35-150z"/></g>
<g id="star-1" unicode="&#57347;"  viewBox="0 0 512 512">       <path  d="M205 236l-128 38 20 64 128-46-2 143 69 0-5-146 128 46 20-66-130-39 84-115-59-38-79 120-77-118-56 39z"/></g>
<g id="chat" unicode="&#57350;"  viewBox="0 0 512 512">       <path  d="M448 384l-43 0 0-192-277 0 0-43c0-11 10-21 21-21l235 0 85-85 0 320c0 11-9 21-21 21z m-85-128l0 192c0 12-10 21-22 21l-277 0c-12 0-21-9-21-21l0-299 85 86 213 0c12 0 22 9 22 21z"/></g>
<g id="camera" unicode="&#57351;"  viewBox="0 0 512 512">       <path  d="M324 256c0-38-30-68-68-68-38 0-68 30-68 68 0 38 30 68 68 68 38 0 68-30 68-68z m-132 213l-39-42-68 0c-23 0-42-19-42-43l0-256c0-24 19-43 42-43l342 0c23 0 42 19 42 43l0 256c0 24-19 43-42 43l-68 0-39 42z m64-320c-59 0-107 48-107 107 0 59 48 107 107 107 59 0 107-48 107-107 0-59-48-107-107-107z"/></g>
<g id="target" unicode="&#57352;"  viewBox="0 0 512 512">       <path  d="M256 341c-47 0-85-38-85-85 0-47 38-85 85-85 47 0 85 38 85 85 0 47-38 85-85 85z m191-64c-10 89-81 160-170 170l0 44-42 0 0-44c-89-10-160-81-170-170l-44 0 0-42 44 0c10-89 81-160 170-170l0-44 42 0 0 44c89 10 160 81 170 170l44 0 0 42z m-191-170c-82 0-149 67-149 149 0 82 67 149 149 149 82 0 149-67 149-149 0-82-67-149-149-149z"/></g>
<g id="phone" unicode="&#57353;"  viewBox="0 0 512 512">       <path  d="M141 282c31-61 80-110 141-141l47 47c6 6 14 8 22 5 23-7 49-12 76-12 12 0 21-9 21-21l0-75c0-12-9-21-21-21-201 0-363 162-363 363 0 12 10 21 21 21l75 0c12 0 21-9 21-21 0-27 5-53 12-76 3-8 1-16-5-22l-47-47z"/></g>
<g id="help" unicode="&#57354;"  viewBox="0 0 512 512">       <path  d="M256 43c-118 0-213 95-213 213 0 118 95 213 213 213 118 0 213-95 213-213 0-118-95-213-213-213zm21 362-42 0 0-42 42 0zm44-165-19 20c-15 15-25 28-25 60l-42 0 0-11c0-23 9-45 25-60l26-27c8-8 13-18 13-30 0-24-19-43-43-43-24 0-43 19-43 43l-42 0c0-47 38-85 85-85 47 0 85 38 85 85 0 19-7 36-20 48z"/></g>
<g id="pen" unicode="&#57355;"  viewBox="0 0 512 512">       <path  d="M64 144l0-80 80 0 236 236-80 80z m378 218c8 8 8 22 0 30l-50 50c-8 8-22 8-30 0l-39-39 80-80z"/></g>
<g id="pen-line" unicode="&#57356;"  viewBox="0 0 512 512">       <path  d="M379 363l-80 80-214-214 0-80 80 0z m63 63c8 8 8 22 0 30l-50 50c-8 8-22 8-30 0l-42-42 80-80z m-442-341l512 0 0-85-512 0z"/></g>
<g id="hot" unicode="&#57357;"  viewBox="0 0 512 512">       <path  d="M288 498c0 0 16-57 16-103 0-44-29-79-73-79-44 0-77 35-77 79l0 8c-43-51-69-117-69-190 0-94 77-170 171-170 94 0 171 76 171 170 0 115-56 218-139 285z m-38-391c-38 0-69 30-69 67 0 34 22 59 60 66 38 8 77 26 99 55 8-27 12-56 12-86 0-56-46-102-102-102z"/></g>
<g id="reload" unicode="&#57358;"  viewBox="0 0 512 512">       <path  d="M377 377c-31 30-74 50-121 50-94 0-170-77-170-171 0-94 76-171 170-171 79 0 146 55 165 128l-44 0c-18-49-65-85-121-85-71 0-128 57-128 128 0 71 57 128 128 128 35 0 67-15 90-38l-69-69 150 0 0 150-50-50z"/></g>
<g id="send" unicode="&#57359;"  viewBox="0 0 512 512">       <path  d="M43 64l448 192-448 192 0-149 320-43-320-43z"/></g>
<g id="select-all" unicode="&#57360;"  viewBox="0 0 512 512">       <path  d="M85 384l-42 0 0-299c0-23 19-42 42-42l299 0 0 42-299 0z m342 85l-256 0c-24 0-43-19-43-42l0-256c0-24 19-43 43-43l256 0c23 0 42 19 42 43l0 256c0 23-19 42-42 42z m-22-192l-85 0 0-85-43 0 0 85-85 0 0 43 85 0 0 85 43 0 0-85 85 0z"/></g>
<g id="unselect-all" unicode="&#57361;"  viewBox="0 0 512 512">       <path  d="M64 405l-43 0 0-341c0-24 19-43 43-43l341 0 0 43-341 0z m384 86l-299 0c-23 0-42-19-42-43l0-299c0-23 19-42 42-42l299 0c24 0 43 19 43 42l0 299c0 24-19 43-43 43z m0-342l-299 0 0 299 299 0z"/></g>
<g id="download" unicode="&#57362;"  viewBox="0 0 512 512">       <path  d="M405 320l-85 0 0 128-128 0 0-128-85 0 149-149z m-298-192l0-43 298 0 0 43z"/></g>
<g id="upload" unicode="&#57363;"  viewBox="0 0 512 512">       <path  d="M192 171l128 0 0 128 85 0-149 149-149-149 85 0z m-85-43l298 0 0-43-298 0z"/></g>
<g id="video" unicode="&#57364;"  viewBox="0 0 512 512">       <path  d="M363 288l0 75c0 11-10 21-22 21l-256 0c-11 0-21-10-21-21l0-214c0-11 10-21 21-21l256 0c12 0 22 10 22 21l0 75 85-85 0 234z"/></g>
<g id="more" unicode="&#57365;"  viewBox="0 0 512 512">       <path  d="M427 469l-342 0c-23 0-42-19-42-42l0-384 85 85 299 0c23 0 42 19 42 43l0 256c0 23-19 42-42 42z m-235-192l-43 0 0 43 43 0z m85 0l-42 0 0 43 42 0z m86 0l-43 0 0 43 43 0z"/></g>
<g id="question" unicode="&#57367;"  viewBox="0 0 512 512">       <path  d="M236 195l40 0 0-41-40 0z m20 266c-113 0-205-92-205-205 0-113 92-205 205-205 113 0 205 92 205 205 0 113-92 205-205 205z m0-369c-90 0-164 74-164 164 0 90 74 164 164 164 90 0 164-74 164-164 0-90-74-164-164-164z m0 266c-18 0-33-5-46-12-10-11-15-23-15-41l0-8 41 0c0 28 15 31 20 31 8 0 13-3 15-8 3-5 5-13 5-20 0-8-2-16-5-21-2-5-7-13-12-18-11-8-23-20-23-49l40 0c0 36 41 39 41 88 0 17-5 30-17 40-11 13-26 18-44 18z"/></g>
<g id="category-1" unicode="&#57368;"  viewBox="0 0 512 512">       <path  d="M277 235l0-171 171 0 0 171z m-213-171l171 0 0 171-171 0z m0 384l0-171 171 0 0 171z m291 28l-120-121 120-120 121 120z"/></g>
<g id="mic" unicode="&#57369;"  viewBox="0 0 512 512">       <path  d="M256 213c35 0 64 29 64 64l0 128c0 36-29 64-64 64-35 0-64-28-64-64l0-128c0-35 29-64 64-64z m113 64c0-64-54-108-113-108-59 0-113 44-113 108l-36 0c0-73 58-133 128-143l0-70 42 0 0 70c70 10 128 70 128 143z"/></g>
<g id="mic-white" unicode="&#57370;"  viewBox="0 0 512 512">       <path  d="M256 213c35 0 64 29 64 64l0 128c0 36-29 64-64 64-35 0-64-28-64-64l0-128c0-35 29-64 64-64z m-26 194c0 15 12 26 26 26 14 0 26-11 26-26l-1-132c0-14-11-25-25-25-14 0-26 11-26 25z m139-130c0-64-54-108-113-108-59 0-113 44-113 108l-36 0c0-73 58-133 128-143l0-70 42 0 0 70c70 10 128 70 128 143z"/></g>
<g id="mic-off" unicode="&#57371;"  viewBox="0 0 512 512">       <path  d="M405 277l-36 0c0-16-3-30-9-43l26-27c12 21 19 45 19 70z m-85-3c0 1 0 2 0 3l0 128c0 36-29 64-64 64-35 0-64-28-64-64l0-4z m-229 174l-27-27 128-128 0-16c0-35 29-64 64-64 5 0 9 1 14 2l35-36c-15-7-32-11-49-11-59 0-113 45-113 109l-36 0c0-73 58-133 128-143l0-70 42 0 0 70c20 3 38 10 55 19l89-89 27 27z"/></g>
<g id="printer" unicode="&#57372;"  viewBox="0 0 512 512">       <path  d="M405 341l-298 0c-36 0-64-28-64-64l0-128 85 0 0-85 256 0 0 85 85 0 0 128c0 36-28 64-64 64z m-64-234l-170 0 0 106 170 0z m64 149c-12 0-21 9-21 21 0 12 9 22 21 22 12 0 22-10 22-22 0-12-10-21-22-21z m-21 192l-256 0 0-85 256 0z"/></g>
<g id="convert" unicode="&#57373;"  viewBox="0 0 512 512">       <path  d="M297 461l-164 0c-23 0-41-18-41-41l0-328c0-23 18-41 41-41l246 0c23 0 41 18 41 41l0 246z m-21-328l0 41-102 0 0 41 102 0 0 41 82-61z m0 184l0 113 113-113z"/></g>
<g id="disk" unicode="&#57375;"  viewBox="0 0 512 512">       <path  d="M363 448l-256 0c-24 0-43-19-43-43l0-298c0-24 19-43 43-43l298 0c24 0 43 19 43 43l0 256-85 85z m-107-341c-35 0-64 28-64 64 0 35 29 64 64 64 35 0 64-29 64-64 0-36-29-64-64-64z m64 213l-213 0 0 85 213 0z"/></g>
<g id="stop" unicode="&#57376;"  viewBox="0 0 512 512">       <path  d="M336 448l-160 0-112-112 0-159 112-113 159 0 113 112 0 160z m-80-305c-15 0-28 12-28 28 0 15 13 27 28 27 15 0 28-12 28-27 0-16-13-28-28-28z m21 92l-42 0 0 128 42 0z"/></g>
<g id="warn-triangle" unicode="&#57377;"  viewBox="0 0 512 512">       <path  d="M21 64l470 0-235 405-235-405z m256 64l-42 0 0 43 42 0z m0 85l-42 0 0 86 42 0z"/></g>
<g id="warn-star" unicode="&#57378;"  viewBox="0 0 512 512">       <path  d="M491 256l-52 59 7 79-77 17-40 68-73-31-73 31-40-68-77-17 7-79-52-59 52-59-7-79 77-17 40-68 73 31 73-31 40 68 77 17-7 79z m-214-107l-42 0 0 43 42 0z m0 86l-42 0 0 128 42 0z"/></g>
<g id="key-reset" unicode="&#57379;"  viewBox="0 0 512 512">       <path  d="M246 253c-8 8-16 16-23 23-11 6-21 11-31 16-10 2-20 5-33 5-16 0-28-3-44-8-10-7-23-15-33-25-10-11-18-21-23-34-5-12-8-28-8-43 0-15 3-28 8-41 5-13 13-26 23-33 10-11 20-18 33-23 13-6 28-8 44-8 13 0 23 2 33 5 10 3 20 8 31 15 7 8 15 13 23 23 7 8 13 18 15 29l79 0 0-72 72 0 0 72 36 0 0 71-187 0c-2 11-8 18-15 28z m-54-79c-3-5-5-8-8-10-2-3-7-5-12-8-6-2-8-2-13-2-5 0-11 0-16 2-5 3-7 5-12 8-3 2-6 8-8 10-3 5-3 10-3 15 0 6 0 11 3 16 2 5 5 7 8 10 2 3 7 5 12 8 5 2 11 2 16 2 5 0 10 0 13-2 5-3 7-5 12-8 3-3 5-8 8-10 3-3 3-10 3-16 0-7 0-10-3-15z m120 174l-30 0c0 8 2 18 5 26 2 7 7 15 13 20 5 5 12 10 20 13 8 3 15 5 26 5 2 0 5 0 7 0 3-2 5-2 8-2 3 0 5-3 8-3 2 0 5-3 7-3l16 16c-3 2-8 2-11 5-2 3-7 3-10 5-2 0-7 3-13 3-5 0-7 0-12 0-13 0-23-3-34-8-10-5-20-10-25-18-8-8-13-15-18-26-5-10-8-20-8-33l-33 0 41-43z m95 0c0-8-3-18-5-25-3-8-8-16-13-21-5-5-13-10-20-13-8-2-16-5-26-5-3 0-5 0-8 0-2 0-5 0-7 3-3 0-5 2-8 2-3 0-5 3-8 3l-15-16c3-2 8-2 10-5 3-2 8-2 10-5 3 0 8-2 13-2 5 0 8 0 13 0 13 0 23 2 33 7 11 5 21 11 26 18 8 8 13 16 18 26 5 10 8 20 8 33l33 0-41 44-44-44z"/></g>
<g id="key" unicode="&#57381;"  viewBox="0 0 512 512">       <path  d="M270 299c-18 49-65 85-121 85-70 0-128-57-128-128 0-71 58-128 128-128 56 0 103 36 121 85l93 0 0-85 85 0 0 85 43 0 0 86-221 0z m-121-86c-23 0-42 19-42 43 0 24 19 43 42 43 24 0 43-19 43-43 0-24-19-43-43-43z"/></g>
<g id="progress" unicode="&#57382;"  viewBox="0 0 512 512">       <path  d="M341 384l49-49-104-104-85 85-158-158 30-30 128 128 85-85 134 134 49-49 0 128z"/></g>
<g id="heart" unicode="&#57383;"  viewBox="0 0 512 512">       <path  d="M256 57l-31 28c-110 99-182 165-182 246 0 65 51 117 117 117 37 0 73-17 96-44 23 27 59 44 96 44 66 0 117-52 117-117 0-81-72-147-182-246z"/></g>
<g id="heart-white" unicode="&#57384;"  viewBox="0 0 512 512">       <path  d="M352 448c-37 0-73-17-96-44-23 27-59 44-96 44-66 0-117-52-117-117 0-81 72-147 182-246l31-28 31 28c110 99 182 165 182 246 0 65-51 117-117 117z m-94-332l-2-2-2 2c-102 92-169 153-169 215 0 42 32 74 75 74 33 0 65-21 76-50l40 0c11 29 43 50 76 50 43 0 75-32 75-74 0-62-67-123-169-215z"/></g>
<g id="lock" unicode="&#57385;"  viewBox="0 0 512 512">       <path  d="M384 341l-21 0 0 43c0 59-48 107-107 107-59 0-107-48-107-107l0-43-21 0c-24 0-43-19-43-42l0-214c0-23 19-42 43-42l256 0c24 0 43 19 43 42l0 214c0 23-19 42-43 42z m-128-192c-24 0-43 19-43 43 0 24 19 43 43 43 24 0 43-19 43-43 0-24-19-43-43-43z m66 192l-132 0 0 43c0 36 30 66 66 66 36 0 66-30 66-66z"/></g>
<g id="unlock" unicode="&#57386;"  viewBox="0 0 512 512">       <path  d="M256 149c24 0 43 19 43 43 0 24-19 43-43 43-24 0-43-19-43-43 0-24 19-43 43-43z m128 192l-21 0 0 43c0 59-48 107-107 107-59 0-107-48-107-107l41 0c0 36 30 66 66 66 36 0 66-30 66-66l0-43-194 0c-24 0-43-19-43-42l0-214c0-23 19-42 43-42l256 0c24 0 43 19 43 42l0 214c0 23-19 42-43 42z m0-256l-256 0 0 214 256 0z"/></g>
<g id="bars-square" unicode="&#57387;"  viewBox="0 0 512 512">       <path  d="M405 448l-298 0c-24 0-43-19-43-43l0-298c0-24 19-43 43-43l298 0c24 0 43 19 43 43l0 298c0 24-19 43-43 43z m-213-299l-43 0 0 150 43 0z m85 0l-42 0 0 214 42 0z m86 0l-43 0 0 86 43 0z"/></g>
<g id="folder" unicode="&#57388;"  viewBox="0 0 512 512">       <path  d="M213 427l-128 0c-23 0-42-19-42-43l0-256c0-24 19-43 42-43l342 0c23 0 42 19 42 43l0 213c0 24-19 43-42 43l-171 0z"/></g>
<g id="folder-white" unicode="&#57389;"  viewBox="0 0 512 512">       <path  d="M427 384l-171 0-43 43-128 0c-23 0-42-19-42-43l0-256c0-24 19-43 42-43l342 0c23 0 42 19 42 43l0 213c0 24-19 43-42 43z m0-256l-342 0 0 213 342 0z"/></g>
<g id="ruler" unicode="&#57390;"  viewBox="0 0 512 512">       <path  d="M448 384l-384 0c-24 0-43-19-43-43l0-170c0-24 19-43 43-43l384 0c24 0 43 19 43 43l0 170c0 24-19 43-43 43z m0-213l-384 0 0 170 43 0 0-85 42 0 0 85 43 0 0-85 43 0 0 85 42 0 0-85 43 0 0 85 43 0 0-85 42 0 0 85 43 0z"/></g>
<g id="bars" unicode="&#57391;"  viewBox="0 0 512 512">       <path  d="M213 85l86 0 0 342-86 0z m-128 0l86 0 0 171-86 0z m256 235l0-235 86 0 0 235z"/></g>
<g id="guide" unicode="&#57394;"  viewBox="0 0 512 512">       <path  d="M405 469l-298 0c-24 0-43-19-43-42l0-299c0-24 19-43 43-43l85 0 64-64 64 64 85 0c24 0 43 19 43 43l0 299c0 23-19 42-43 42z m-128-341l-42 0 0 43 42 0z m44 165l-19-19c-15-16-25-29-25-61l-42 0 0 11c0 24 9 45 25 60l26 27c8 8 13 19 13 30 0 24-19 43-43 43-24 0-43-19-43-43l-42 0c0 47 38 86 85 86 47 0 85-39 85-86 0-18-7-35-20-48z"/></g>
<g id="monitor" unicode="&#57395;"  viewBox="0 0 512 512">       <path  d="M448 64l-384 0c-24 0-43 19-43 43l0 256c0 23 19 42 43 42l107 0 0 43 170 0 0-43 107 0c24 0 42-19 42-42l1-256c0-24-19-43-43-43zm0 299-384 0 0-256 384 0zm-43-192-234 0 0 42 234 0zm0 85-234 0 0 43 234 0zm-256-85-42 0 0 42 42 0zm0 85-42 0 0 43 42 0z"/></g>
<g id="film" unicode="&#57396;"  viewBox="0 0 512 512">       <path  d="M384 448l0-43-43 0 0 43-170 0 0-43-43 0 0 43-43 0 0-384 43 0 0 43 43 0 0-43 170 0 0 43 43 0 0-43 43 0 0 384z m-213-299l-43 0 0 43 43 0z m0 86l-43 0 0 42 43 0z m0 85l-43 0 0 43 43 0z m213-171l-43 0 0 43 43 0z m0 86l-43 0 0 42 43 0z m0 85l-43 0 0 43 43 0z"/></g>
<g id="bug" unicode="&#57398;"  viewBox="0 0 512 512">       <path  d="M427 341l-60 0c-10 17-23 31-39 42l35 35-31 30-46-46c-10 2-20 3-30 3-10 0-20-1-30-3l-46 46-31-30 35-35c-16-11-29-25-39-42l-60 0 0-42 45 0c-1-7-2-14-2-22l0-21-43 0 0-43 43 0 0-21c0-7 1-14 2-21l-45 0 0-43 60 0c22-38 64-64 111-64 47 0 89 26 111 64l60 0 0 43-45 0c1 7 2 14 2 21l0 21 43 0 0 43-43 0 0 21c0 8-1 15-2 22l45 0z m-128-170l-86 0 0 42 86 0z m0 85l-86 0 0 43 86 0z"/></g>
<g id="card" unicode="&#57399;"  viewBox="0 0 512 512">       <path  d="M427 427l-342 0c-23 0-42-19-42-43l0-256c0-24 19-43 42-43l342 0c23 0 42 19 42 43l0 256c0 24-19 43-42 43z m0-299l-342 0 0 128 342 0z m0 213l-342 0 0 43 342 0z"/></g>
<g id="connections" unicode="&#57400;"  viewBox="0 0 512 512">       <path  d="M107 469c0 12-10 22-22 22-12 0-21-10-21-22l0-85-43 0 0-128 128 0 0 128-42 0z m85-298c0-28 18-52 43-60l0-90 42 0 0 90c25 8 43 32 43 60l0 42-128 0z m-171 0c0-28 18-52 43-60l0-90 43 0 0 90c24 8 42 32 42 60l0 42-128 0z m427 213l0 85c0 12-9 22-21 22-12 0-22-10-22-22l0-85-42 0 0-128 128 0 0 128z m-171 85c0 12-9 22-21 22-12 0-21-10-21-22l0-85-43 0 0-128 128 0 0 128-43 0z m86-298c0-28 18-52 42-60l0-90 43 0 0 90c25 8 43 32 43 60l0 42-128 0 0-42z"/></g>
<g id="contacts" unicode="&#57401;"  viewBox="0 0 512 512">       <path  d="M405 448l-89 0c-9 25-32 43-60 43-28 0-51-18-60-43l-89 0c-24 0-43-19-43-43l0-298c0-24 19-43 43-43l298 0c24 0 43 19 43 43l0 298c0 24-19 43-43 43z m-149 0c12 0 21-9 21-21 0-12-9-22-21-22-12 0-21 10-21 22 0 12 9 21 21 21z m0-85c35 0 64-29 64-64 0-36-29-64-64-64-35 0-64 28-64 64 0 35 29 64 64 64z m128-256l-256 0 0 30c0 42 85 66 128 66 43 0 128-24 128-66z"/></g>
<g id="feedback" unicode="&#57402;"  viewBox="0 0 512 512">       <path  d="M427 469l-342 0c-23 0-42-19-42-42l0-384 85 85 299 0c23 0 42 19 42 43l0 256c0 23-19 42-42 42z m-43-256l-256 0 0 43 256 0z m0 64l-256 0 0 43 256 0z m0 64l-256 0 0 43 256 0z"/></g>
<g id="plus-square" unicode="&#57403;"  viewBox="0 0 512 512">       <path  d="M405 448l-298 0c-24 0-43-19-43-43l0-298c0-24 19-43 43-43l298 0c24 0 43 19 43 43l0 298c0 24-19 43-43 43z m-42-213l-86 0 0-86-42 0 0 86-86 0 0 42 86 0 0 86 42 0 0-86 86 0z"/></g>
<g id="pie-circle" unicode="&#57404;"  viewBox="0 0 512 512">       <path  d="M347 347c-26 25-58 37-91 37l0-128-91-91c50-50 131-50 181 0 50 50 50 132 1 182z m-91 122c-118 0-213-95-213-213 0-118 95-213 213-213 118 0 213 95 213 213 0 118-95 213-213 213z m0-384c-94 0-171 77-171 171 0 94 77 171 171 171 94 0 171-77 171-171 0-94-77-171-171-171z"/></g>
<g id="preview" unicode="&#57405;"  viewBox="0 0 512 512">       <path  d="M256 416c-107 0-198-66-235-160 37-94 128-160 235-160 107 0 198 66 235 160-37 94-128 160-235 160z m0-267c-59 0-107 48-107 107 0 59 48 107 107 107 59 0 107-48 107-107 0-59-48-107-107-107z m0 171c-35 0-64-29-64-64 0-35 29-64 64-64 35 0 64 29 64 64 0 35-29 64-64 64z"/></g>
<g id="info-circle-white" unicode="&#57406;"  viewBox="0 0 512 512">       <path  d="M235 149l42 0 0 128-42 0z m21 320c-118 0-213-95-213-213 0-118 95-213 213-213 118 0 213 95 213 213 0 118-95 213-213 213z m0-384c-94 0-171 77-171 171 0 94 77 171 171 171 94 0 171-77 171-171 0-94-77-171-171-171z m-21 235l42 0 0 43-42 0z"/></g>
<g id="label" unicode="&#57408;"  viewBox="0 0 512 512">       <path  d="M376 387c-8 11-20 18-35 18l-234 0c-24 0-43-19-43-42l0-214c0-23 19-42 43-42l234 0c15 0 27 7 35 18l93 131z m-35-238l-234 0 0 214 234 0 76-107z"/></g>
<g id="collapse" unicode="&#57409;"  viewBox="0 0 512 512">       <path  d="M158 116l30-31 68 68 68-68 30 31-98 97-98-97z m196 280l-30 31-68-68-68 68-30-31 98-97 98 97z"/></g>
<g id="expancd" unicode="&#57410;"  viewBox="0 0 512 512">       <path  d="M256 388l68-68 30 30-98 98-98-98 30-30z m0-264l-68 68-30-30 98-98 98 98-30 30z"/></g>
<g id="delete" unicode="&#57411;"  viewBox="0 0 512 512">       <path  d="M469 448l-320 0c-14 0-26-7-34-19l-115-173 115-173c8-11 20-19 34-19l320 0c24 0 43 19 43 43l0 298c0 24-19 43-43 43z m-64-268l-30-31-76 77-77-77-30 31 76 76-76 76 30 31 77-77 76 77 30-31-76-76z"/></g>
<g id="plus-circle-white" unicode="&#57412;"  viewBox="0 0 512 512">       <path  d="M277 363l-42 0 0-86-86 0 0-42 86 0 0-86 42 0 0 86 86 0 0 42-86 0z m-21 106c-118 0-213-95-213-213 0-118 95-213 213-213 118 0 213 95 213 213 0 118-95 213-213 213z m0-384c-94 0-171 77-171 171 0 94 77 171 171 171 94 0 171-77 171-171 0-94-77-171-171-171z"/></g>
<g id="minus-circle-white" unicode="&#57413;"  viewBox="0 0 512 512">       <path  d="M149 277l0-42 214 0 0 42z m107 192c-118 0-213-95-213-213 0-118 95-213 213-213 118 0 213 95 213 213 0 118-95 213-213 213z m0-384c-94 0-171 77-171 171 0 94 77 171 171 171 94 0 171-77 171-171 0-94-77-171-171-171z"/></g>
<g id="list-large" unicode="&#57418;"  viewBox="0 0 512 512">       <path  d="M7 282l55 0 0 56-55 0z m0-110l55 0 0 55-55 0z m0 221l55 0 0 55-55 0z m111-111l387 0 0 56-387 0z m0-110l387 0 0 55-387 0z m0 276l0-55 387 0 0 55z m0-387l387 0 0 55-387 0z m-111 0l55 0 0 55-55 0z"/></g>
<g id="config-all" unicode="&#57392;"  viewBox="0 0 512 512">       <path  d="M483 112c0 1 0 2 0 3 0 1 0 2 0 2 0 1 0 2 0 3l0 5c0 1 0 2 0 2 0 1 0 2 0 3 0 0 0 1 0 2l21 17c1 0 1 1 2 3 0 1 0 2-1 3l-20 35c-1 1-2 2-3 2-1 1-2 1-3 0l-25-10c-1 1-3 2-4 3-2 1-3 2-4 3-2 0-3 1-5 2-1 1-3 1-4 2l-4 27c0 1-1 2-2 3-1 0-2 1-3 1l-40 0c-1 0-2-1-3-1-1-1-2-2-2-3l-4-27c-1-1-3-1-4-2-2-1-3-2-5-2-1-1-2-2-4-3-1-1-2-2-4-3l-25 10c-1 1-2 1-3 0-1 0-2-1-3-2l-20-35c-1-1-1-2-1-3 1-1 1-3 2-3l21-17c0-1 0-2 0-2 0-1 0-2 0-3 0 0 0-1 0-2l0-5c0-1 0-2 0-3 0 0 0-1 0-2 0-1 0-2 0-3l-21-16c-1-1-1-2-2-3 0-1 0-2 1-4l20-34c1-1 2-2 3-2 1-1 2-1 3-1l25 11c2-1 3-2 4-3 2-1 3-2 4-3 2-1 3-1 5-2 1-1 3-2 4-2l4-27c0-1 1-2 2-3 1-1 2-1 3-1l40 0c1 0 2 0 3 1 1 1 2 2 2 3l4 27c1 0 3 1 4 2 2 1 3 1 5 2 1 1 2 2 4 3 1 1 2 2 4 3l25-11c1 0 2 0 3 1 1 0 2 1 3 2l20 34c1 2 1 3 1 4-1 1-1 2-2 3z m-75-25c-5 0-9 1-14 3-4 2-8 4-11 7-3 4-6 7-7 12-2 4-3 8-3 13 0 5 1 10 3 14 1 4 4 8 7 11 3 3 7 6 11 8 5 2 9 2 14 2 5 0 9 0 14-2 4-2 8-5 11-8 3-3 6-7 7-11 2-4 3-9 3-14 0-5-1-9-3-13-1-5-4-8-7-12-3-3-7-5-11-7-5-2-9-3-14-3z m74 297c1 0 1 1 1 2 0 1 0 2 0 2 0 1 0 2 0 3l0 5c0 1 0 2 0 2 0 1 0 2 0 3 0 0 0 1-1 2l22 17c0 1 1 2 1 3 1 1 0 2 0 3l-20 35c-1 1-2 2-3 2-1 1-2 1-3 0l-25-10c-2 1-3 2-4 3-2 1-3 2-5 3-1 0-2 1-4 2-1 1-3 1-4 2l-4 27c0 1-1 2-2 3-1 0-2 1-3 1l-40 0c-1 0-3-1-4-1 0-1-1-2-1-3l-4-27c-1-1-3-1-5-2-1-1-2-2-4-2-1-1-3-2-4-3-1-1-3-2-4-3l-25 10c-1 1-2 1-3 0-2 0-3-1-3-2l-20-35c-1-1-1-2-1-3 0-1 1-2 2-3l21-17c0-1 0-2 0-2 0-1 0-2 0-3 0 0-1-1-1-2l0-5c0-1 1-2 1-3 0 0 0-1 0-2 0-1 0-2 0-2l-21-17c-1-1-2-2-2-3 0-1 0-2 1-4l20-34c0-1 1-2 3-2 1-1 2-1 3 0l25 10c1-1 3-2 4-3 1-1 3-2 4-3 2-1 3-1 4-2 2-1 4-2 5-2l4-27c0-1 1-2 1-3 1-1 3-1 4-1l40 0c1 0 2 0 3 1 1 1 2 2 2 3l3 27c2 0 4 1 5 2 2 1 3 1 4 2 2 1 3 2 5 3 1 1 2 2 4 3l25-10c1-1 2-1 3 0 1 0 2 1 3 2l20 34c0 2 1 3 0 4 0 1-1 2-1 3z m-74-26c-5 0-10 1-14 3-4 2-8 4-11 7-3 4-6 8-8 12-1 4-2 9-2 13 0 5 1 10 2 14 2 4 5 8 8 11 3 3 7 6 11 8 4 2 9 2 14 2 5 0 9 0 13-2 5-2 8-5 12-8 3-3 5-7 7-11 2-4 3-9 3-14 0-4-1-9-3-13-2-4-4-8-7-12-4-3-7-5-12-7-4-2-8-3-13-3z m-144-122c0 1 0 2 0 3 0 2 0 3 0 4 1 1 1 2 1 4l0 7c0 1 0 3-1 4 0 1 0 2 0 3 0 1 0 3 0 4l31 25c2 1 3 3 3 4 0 2 0 4-1 6l-30 52c-1 1-2 2-4 3-2 1-3 1-5 0l-37-15c-2 1-4 3-6 4-3 2-5 3-7 4-2 1-4 2-6 4-3 1-5 2-7 3l-5 40c-1 1-2 3-3 4-2 1-3 2-5 2l-60 0c-2 0-4-1-5-2-2-1-2-3-3-4l-5-40c-3-1-5-2-7-3-2-2-5-3-7-4-2-1-4-2-6-4-2-1-4-3-6-4l-37 15c-2 1-4 1-6 0-1-1-3-2-4-3l-30-52c-1-2-1-4-1-6 1-1 2-3 3-4l32-25c0-1-1-3-1-4 0-1 0-2 0-3 0-1 0-3 0-4l0-7c0-2 0-3 0-4 0-1 0-2 0-4 0-1 1-2 1-3l-32-25c-1-1-2-3-3-5 0-1 0-3 1-5l30-52c1-2 3-3 4-3 2-1 4-1 6 0l37 15c2-2 4-3 6-5 2-1 4-2 6-3 2-2 5-3 7-4 2-1 4-2 7-3l5-40c1-2 1-3 3-4 1-2 3-2 5-2l60 0c2 0 3 0 5 2 1 1 2 2 2 4l6 40c2 1 4 2 7 3 2 1 4 2 6 4 2 1 4 2 6 3 2 2 4 3 7 5l37-15c2-1 3-1 5 0 2 0 3 1 4 3l30 52c1 2 1 3 1 5 0 2-1 4-3 5z m-112-38c-8 0-14 1-21 4-6 3-12 6-17 11-4 5-8 11-11 17-2 6-4 13-4 20 0 8 2 14 4 21 3 6 7 12 11 17 5 4 11 8 17 11 7 3 13 4 21 4 7 0 14-1 20-4 7-3 12-7 17-11 5-5 9-11 11-17 3-7 4-13 4-21 0-7-1-14-4-20-2-6-6-12-11-17-5-5-10-8-17-11-6-3-13-4-20-4z"/></g>
<g id="pie-chart" unicode="&#57420;"  viewBox="0 0 512 512">       <path  d="M277 468l0-64c73-11 128-73 128-148 0-19-3-37-10-54l56-33c11 27 18 56 18 87 0 111-84 201-192 212z m-21-361c-82 0-149 67-149 149 0 75 55 137 128 148l0 64c-108-10-192-101-192-212 0-118 95-213 213-213 71 0 133 34 172 87l-56 33c-27-34-69-56-116-56z"/></g>
<g id="clock-back" unicode="&#57423;"  viewBox="0 0 512 512">       <path  d="M277 64c-106 0-192 86-192 192l-64 0 83 83 2 3 86-86-64 0c0-82 67-149 149-149 83 0 150 67 150 149 0 82-67 149-150 149-41 0-78-17-105-44l-30 31c34 34 82 56 135 56 106 0 192-86 192-192 0-106-86-192-192-192zm-21 107 0 106 91 55 16-26-75-45 0-90z"/></g>
<g id="dashboard" unicode="&#57424;"  viewBox="0 0 512 512">       <path  d="M64 235l171 0 0 213-171 0z m0-171l171 0 0 128-171 0z m213 0l171 0 0 213-171 0z m0 384l0-128 171 0 0 128z"/></g>
<g id="square" unicode="&#57426;"  viewBox="0 0 512 512">       <path  d="M128 384l256 0 0-256-256 0z"/></g>
<g id="flag" unicode="&#57427;"  viewBox="0 0 512 512">       <path  d="M307 384l-8 43-192 0 0-363 42 0 0 149 120 0 8-42 150 0 0 213z"/></g>
<g id="dot-circle" unicode="&#57428;"  viewBox="0 0 512 512">       <path  d="M256 469c-118 0-213-95-213-213 0-118 95-213 213-213 118 0 213 95 213 213 0 118-95 213-213 213z m0-384c-94 0-171 77-171 171 0 94 77 171 171 171 94 0 171-77 171-171 0-94-77-171-171-171z m64 171c0-35-29-64-64-64-35 0-64 29-64 64 0 35 29 64 64 64 35 0 64-29 64-64z"/></g>
<g id="flash" unicode="&#57429;"  viewBox="0 0 512 512">       <path  d="M149 469l0-234 64 0 0-192 150 256-86 0 86 170z"/></g>
<g id="location-line" unicode="&#57431;"  viewBox="0 0 512 512">       <path  d="M384 341c0 71-57 128-128 128-71 0-128-57-128-128 0-96 128-234 128-234 0 0 128 138 128 234z m-171 0c0 24 19 43 43 43 24 0 43-19 43-43 0-23-19-42-43-42-24 0-43 19-43 42z m-106-256l0-42 298 0 0 42z"/></g>
<g id="navigate" unicode="&#57435;"  viewBox="0 0 512 512">       <path  d="M256 469l-160-390 15-15 145 64 145-64 15 15z"/></g>
<g id="warn-comment" unicode="&#57437;"  viewBox="0 0 512 512">       <path  d="M427 469l-342 0c-23 0-42-19-42-42l0-384 85 85 299 0c23 0 42 19 42 43l0 256c0 23-19 42-42 42z m-150-256l-42 0 0 43 42 0z m0 86l-42 0 0 85 42 0z"/></g>
<g id="map" unicode="&#57438;"  viewBox="0 0 512 512">       <path  d="M437 448c-1 0-2 0-3-1l-114-44-128 45-120-41c-5-1-8-5-8-10l0-322c0-6 5-11 11-11 1 0 2 0 3 1l114 44 128-45 120 40c5 2 8 6 8 11l0 322c0 6-5 11-11 11z m-117-341l-128 45 0 253 128-45z"/></g>
<g id="tag" unicode="&#57439;"  viewBox="0 0 512 512">       <path  d="M457 247l-192-192c-8-8-19-12-30-12l-150 0c-23 0-42 19-42 42l0 150c0 12 4 22 12 30l192 192c8 8 19 12 30 12 12 0 23-4 31-12l149-149c8-8 12-19 12-31 0-12-4-22-12-30zm-340-98c-17 0-32-14-32-32 0-17 15-32 32-32 18 0 32 15 32 32 0 18-14 32-32 32z"/></g>
<g id="tag-all" unicode="&#57441;"  viewBox="0 0 512 512">       <path  d="M54 93l29-12 0 192-52-125c-9-21 1-46 23-55z m416 79l-106 255c-6 16-22 26-38 26-6 0-12-1-17-3l-158-65c-16-7-25-22-26-38 0-6 1-12 3-18l106-255c7-16 23-26 39-26 6 0 11 1 17 3l157 65c21 9 32 34 23 56z m-302 153c-12 0-21 10-21 22 0 11 9 21 21 21 12 0 21-10 21-21 0-12-9-22-21-22z m-43-234c0-24 20-43 43-43l31 0-74 178z"/></g>
<g id="location" unicode="&#49;"  viewBox="0 0 512 512">       <path  d="M256 469c-82 0-149-67-149-149 0-112 149-277 149-277 0 0 149 165 149 277 0 82-67 149-149 149z m0-202c-29 0-53 24-53 53 0 29 24 53 53 53 29 0 53-24 53-53 0-29-24-53-53-53z"/></g>
<g id="circle-white" unicode="&#57446;"  viewBox="0 0 512 512">       <path  d="M256 469c-118 0-213-95-213-213 0-118 95-213 213-213 118 0 213 95 213 213 0 118-95 213-213 213z m0-384c-94 0-171 77-171 171 0 94 77 171 171 171 94 0 171-77 171-171 0-94-77-171-171-171z"/></g>
<g id="star-small" unicode="&#57452;"  viewBox="0 0 512 512">       <path  d="M256 207l79-58-30 93 79 57-97 0-31 96-31-96-97 0 79-57-30-93z"/></g>
<g id="quote" unicode="&#57454;"  viewBox="0 0 512 512">       <path  d="M128 149l64 0 43 86 0 128-128 0 0-128 64 0z m171 0l64 0 42 86 0 128-128 0 0-128 64 0z"/></g>
<g id="home" unicode="&#57458;"  viewBox="0 0 512 512">       <path  d="M213 427l0-128 86 0 0 128 106 0 0-171 64 0-213-192-213 192 64 0 0 171z"/></g>
<g id="star-half" unicode="&#57459;"  viewBox="0 0 512 512">       <path  d="M469 304l-153 13-60 142-60-142-153-13 116-101-35-150 132 80 132-80-35 150 116 101z m-213-131l0 198 36-86 94-8-71-62 21-91z"/></g>
<g id="resolution" unicode="&#57465;"  viewBox="0 0 512 512">       <path  d="M427 469l-342 0c-23 0-42-19-42-42l0-384 85 85 299 0c23 0 42 19 42 43l0 256c0 23-19 42-42 42z m-299-256l0 53 147 147c4 4 11 4 15 0l38-38c4-4 4-11 0-15l-147-147z m256 0l-160 0 43 43 117 0z"/></g>
<g id="globe" unicode="&#57469;"  viewBox="0 0 512 512">       <path  d="M256 469c-118 0-213-95-213-213 0-118 95-213 213-213 118 0 213 95 213 213 0 118-95 213-213 213z m148-128l-63 0c-7 27-17 53-30 76 40-13 72-40 93-76z m-148 85c18-26 32-54 41-85l-82 0c9 31 23 59 41 85z m-165-213c-4 14-6 28-6 43 0 15 2 29 6 43l72 0c-2-14-3-28-3-43 0-15 1-29 3-43z m17-42l63 0c7-27 17-53 30-76-40 13-72 40-93 76z m63 170l-63 0c21 36 53 63 93 76-13-23-23-49-30-76z m85-255c-18 26-32 54-41 85l82 0c-9-31-23-59-41-85z m50 127l-100 0c-2 14-3 28-3 43 0 15 1 29 3 43l100 0c2-14 3-28 3-43 0-15-1-29-3-43z m5-118c13 24 23 49 30 76l63 0c-21-36-53-63-93-76z m38 118c2 14 3 28 3 43 0 15-1 29-3 43l72 0c4-14 6-28 6-43 0-15-2-29-6-43z"/></g>
<g id="triangle-left" unicode="&#57471;"  viewBox="0 0 512 512">       <path  d="M283 363l-112-113 112-112z"/></g>
<g id="person-info" unicode="&#82;"  viewBox="0 0 512 512">       <path  d="M405 469l-298 0c-24 0-43-19-43-42l0-299c0-24 19-43 43-43l85 0 64-64 64 64 85 0c24 0 43 19 43 43l0 299c0 23-19 42-43 42z m-149-70c32 0 58-26 58-58 0-31-26-57-58-57-32 0-58 26-58 57 0 32 26 58 58 58z m128-228l-256 0 0 19c0 43 85 66 128 66 43 0 128-23 128-66z"/></g>
<g id="ribbon" unicode="&#57479;"  viewBox="0 0 512 512">       <path  d="M363 448l-214 0c-23 0-42-19-42-43l0-341 149 64 149-64 0 341c0 24-19 43-42 43z"/></g>
<g id="ribbon-white" unicode="&#57480;"  viewBox="0 0 512 512">       <path  d="M363 448l-214 0c-23 0-42-19-42-43l0-341 149 64 149-64 0 341c0 24-19 43-42 43z m0-320l-107 46-107-46 0 277 214 0z"/></g>
<g id="picture-no-border" unicode="&#78;"  viewBox="0 0 512 512">       <path  d="M120 325l136-102 69 33 136-82 0-54-410 0 0 136z m341 15c0-28-23-51-51-51-29 0-52 23-52 51 0 29 23 52 52 52 28 0 51-23 51-52z"/></g>
<g id="lock-1" unicode="&#52;"  viewBox="0 0 512 512">       <path  d="M384 341l-21 0 0 43c0 59-48 107-107 107-59 0-107-48-107-107l0-43-21 0c-24 0-43-19-43-42l0-214c0-23 19-42 43-42l256 0c24 0 43 19 43 42l0 214c0 23-19 42-43 42z m-128 109c36 0 66-30 66-66l0-43-130 0 0 43-2 0c0 36 30 66 66 66z m128-365l-256 0 0 214 256 0z m-128 64c24 0 43 19 43 43 0 24-19 43-43 43-24 0-43-19-43-43 0-24 19-43 43-43z"/></g>
<g id="cart" unicode="&#37;"  viewBox="0 0 512 512">       <path  d="M149 384c-23 0-42 19-42 43 0 23 19 42 42 42 24 0 43-19 43-42 0-24-19-43-43-43zm-128-341 0 42 43 0 77 162-29 52c-3 7-5 14-5 21 0 24 19 43 42 43l256 0 0-43-247 0c-3 0-5-2-5-5 0-1 0-2 1-3l19-35 159 0c16 0 30-9 37-22l76-138c2-3 3-7 3-10 0-12-10-22-21-22l-316 0-20-42-70 0zm342 341c-24 0-43 19-43 43 0 23 19 42 43 42 23 0 42-19 42-42 0-24-19-43-42-43z"/></g>
<g id="shield" unicode="&#38;"  viewBox="0 0 512 512">       <path  d="M256 491l-192-86 0-128c0-118 82-229 192-256 110 27 192 138 192 256l0 128z m0-235l149 0c-11-88-70-166-149-190l0 190-149 0 0 122 149 66 0-188z"/></g>
<g id="cross-circle-white" unicode="&#41;"  viewBox="0 0 512 512">       <path  d="M311 341l-55-55-55 55-30-30 55-55-55-55 30-30 55 55 55-55 30 30-55 55 55 55z m-55 128c-118 0-213-95-213-213 0-118 95-213 213-213 118 0 213 95 213 213 0 118-95 213-213 213z m0-384c-94 0-171 77-171 171 0 94 77 171 171 171 94 0 171-77 171-171 0-94-77-171-171-171z"/></g>

</defs></svg>
