<?xml version="1.0" encoding="UTF-8"?>
<svg width="40px" height="40px" viewBox="0 0 40 40" version="1.1" xmlns="http://www.w3.org/2000/svg" xmlns:xlink="http://www.w3.org/1999/xlink">
    <!-- Generator: Sketch 45.1 (43504) - http://www.bohemiancoding.com/sketch -->
    <title>Assets W</title>
    <desc>Created with Sketch.</desc>
    <defs>
        <path d="M15,30 C6.716,30 0,23.284 0,15 C0,6.716 6.716,0 15,0 L30,0 L30,15 C30,23.284 23.284,30 15,30 Z" id="path-1"></path>
        <filter x="-15.0%" y="-15.0%" width="130.0%" height="130.0%" filterUnits="objectBoundingBox" id="filter-2">
            <feMorphology radius="0.5" operator="dilate" in="SourceAlpha" result="shadowSpreadOuter1"></feMorphology>
            <feOffset dx="0" dy="0" in="shadowSpreadOuter1" result="shadowOffsetOuter1"></feOffset>
            <feGaussianBlur stdDeviation="1" in="shadowOffsetOuter1" result="shadowBlurOuter1"></feGaussianBlur>
            <feColorMatrix values="0 0 0 0 0   0 0 0 0 0   0 0 0 0 0  0 0 0 0.5 0" type="matrix" in="shadowBlurOuter1"></feColorMatrix>
        </filter>
        <linearGradient x1="50%" y1="0%" x2="50%" y2="100%" id="linearGradient-3">
            <stop stop-color="#8B8B8B" stop-opacity="0.5" offset="0%"></stop>
            <stop stop-color="#8B8B8B" offset="100%"></stop>
        </linearGradient>
        <path d="M13,26 C5.82053333,26 0,20.1794667 0,13 C0,5.82053333 5.82053333,0 13,0 C20.1794667,0 26,5.82053333 26,13 C26,20.1794667 20.1794667,26 13,26 Z" id="path-4"></path>
    </defs>
    <g id="Export-symbols" stroke="none" stroke-width="1" fill="none" fill-rule="evenodd">
        <g id="Assets-W">
            <g id="Direction" transform="translate(22.000000, 20.000000) rotate(-135.000000) translate(-22.000000, -20.000000) translate(7.000000, 5.000000)">
                <g id="Outer-circle">
                    <use fill="black" fill-opacity="1" filter="url(#filter-2)" xlink:href="#path-1"></use>
                    <use fill="#FFFFFF" fill-rule="evenodd" xlink:href="#path-1"></use>
                </g>
                <path d="M15,28 C7.82053333,28 2,22.1794667 2,15 C2,7.82053333 7.82053333,2 15,2 C22.1794667,2 28,7.82053333 28,15 C28,22.1794667 22.1794667,28 15,28 Z" id="Symbol-background" fill="#FEFEFE" fill-rule="evenodd"></path>
            </g>
            <g id="Asset-symbol" transform="translate(7.000000, 5.000000)">
                <g id="Symbol" stroke-width="1" transform="translate(2.000000, 2.000000)">
                    <g id="Outer-circle">
                        <use fill="url(#linearGradient-3)" fill-rule="evenodd" xlink:href="#path-4"></use>
                        <path stroke-opacity="0.1" stroke="#000000" stroke-width="1" d="M13,25.5 C19.9033243,25.5 25.5,19.9033243 25.5,13 C25.5,6.09667571 19.9033243,0.5 13,0.5 C6.09667571,0.5 0.5,6.09667571 0.5,13 C0.5,19.9033243 6.09667571,25.5 13,25.5 Z"></path>
                    </g>
                </g>
                <g id="Asset-1" transform="translate(7.000000, 7.000000)" fill="#FEFEFE">
                    <path d="M6.43404255,14.1957447 C5.82127353,14.0595738 5.24255591,13.8212783 4.69787234,13.4808511 L3.43829787,14.7744681 L1.22553191,12.5617021 L2.48510638,11.2680851 C2.1673743,10.7234015 1.94042621,10.1560313 1.80425532,9.56595745 L0,9.56595745 L0,6.43404255 L1.80425532,6.43404255 C1.94042621,5.82127353 2.1787217,5.24255591 2.51914894,4.69787234 L1.25957447,3.43829787 L3.47234043,1.22553191 L4.73191489,2.48510638 C5.27659847,2.1673743 5.84396868,1.94042621 6.43404255,1.80425532 L6.43404255,0 L9.56595745,0 L9.56595745,1.80425532 C10.1560313,1.94042621 10.7234015,2.1673743 11.2680851,2.48510638 L12.5617021,1.22553191 L14.7744681,3.43829787 L13.4808511,4.69787234 C13.8212783,5.24255591 14.0595738,5.82127353 14.1957447,6.43404255 L16,6.43404255 L16,9.56595745 L14.1957447,9.56595745 C14.0595738,10.1560313 13.8326257,10.7234015 13.5148936,11.2680851 L14.7744681,12.5617021 L12.5617021,14.7744681 L11.2680851,13.5148936 C10.7234015,13.8326257 10.1560313,14.0595738 9.56595745,14.1957447 L9.56595745,16 L6.43404255,16 L6.43404255,14.1957447 Z M8.03404255,12.5617021 C9.28227574,12.5617021 10.3489317,12.1191534 11.2340426,11.2340426 C12.1191534,10.3489317 12.5617021,9.28227574 12.5617021,8.03404255 C12.5617021,6.78580936 12.1191534,5.71347966 11.2340426,4.81702128 C10.3489317,3.92056289 9.28227574,3.47234043 8.03404255,3.47234043 C6.78580936,3.47234043 5.71347966,3.92056289 4.81702128,4.81702128 C3.92056289,5.71347966 3.47234043,6.78580936 3.47234043,8.03404255 C3.47234043,9.28227574 3.92056289,10.3489317 4.81702128,11.2340426 C5.71347966,12.1191534 6.78580936,12.5617021 8.03404255,12.5617021 Z M8.00425532,10.8085106 C7.2282311,10.8085106 6.56685674,10.5351426 6.0201124,9.98839823 C5.47336807,9.4416539 5.2,8.78027954 5.2,8.00425532 C5.2,7.2282311 5.47336807,6.56685674 6.0201124,6.0201124 C6.56685674,5.47336807 7.2282311,5.2 8.00425532,5.2 C8.78027954,5.2 9.4416539,5.47336807 9.98839823,6.0201124 C10.5351426,6.56685674 10.8085106,7.2282311 10.8085106,8.00425532 C10.8085106,8.78027954 10.5351426,9.4416539 9.98839823,9.98839823 C9.4416539,10.5351426 8.78027954,10.8085106 8.00425532,10.8085106 Z" id="Icon"></path>
                    <path d="M6.43404255,14.1957447 C5.82127353,14.0595738 5.24255591,13.8212783 4.69787234,13.4808511 L3.43829787,14.7744681 L1.22553191,12.5617021 L2.48510638,11.2680851 C2.1673743,10.7234015 1.94042621,10.1560313 1.80425532,9.56595745 L0,9.56595745 L0,6.43404255 L1.80425532,6.43404255 C1.94042621,5.82127353 2.1787217,5.24255591 2.51914894,4.69787234 L1.25957447,3.43829787 L3.47234043,1.22553191 L4.73191489,2.48510638 C5.27659847,2.1673743 5.84396868,1.94042621 6.43404255,1.80425532 L6.43404255,0 L9.56595745,0 L9.56595745,1.80425532 C10.1560313,1.94042621 10.7234015,2.1673743 11.2680851,2.48510638 L12.5617021,1.22553191 L14.7744681,3.43829787 L13.4808511,4.69787234 C13.8212783,5.24255591 14.0595738,5.82127353 14.1957447,6.43404255 L16,6.43404255 L16,9.56595745 L14.1957447,9.56595745 C14.0595738,10.1560313 13.8326257,10.7234015 13.5148936,11.2680851 L14.7744681,12.5617021 L12.5617021,14.7744681 L11.2680851,13.5148936 C10.7234015,13.8326257 10.1560313,14.0595738 9.56595745,14.1957447 L9.56595745,16 L6.43404255,16 L6.43404255,14.1957447 Z M8.03404255,12.5617021 C9.28227574,12.5617021 10.3489317,12.1191534 11.2340426,11.2340426 C12.1191534,10.3489317 12.5617021,9.28227574 12.5617021,8.03404255 C12.5617021,6.78580936 12.1191534,5.71347966 11.2340426,4.81702128 C10.3489317,3.92056289 9.28227574,3.47234043 8.03404255,3.47234043 C6.78580936,3.47234043 5.71347966,3.92056289 4.81702128,4.81702128 C3.92056289,5.71347966 3.47234043,6.78580936 3.47234043,8.03404255 C3.47234043,9.28227574 3.92056289,10.3489317 4.81702128,11.2340426 C5.71347966,12.1191534 6.78580936,12.5617021 8.03404255,12.5617021 Z M8.00425532,10.8085106 C7.2282311,10.8085106 6.56685674,10.5351426 6.0201124,9.98839823 C5.47336807,9.4416539 5.2,8.78027954 5.2,8.00425532 C5.2,7.2282311 5.47336807,6.56685674 6.0201124,6.0201124 C6.56685674,5.47336807 7.2282311,5.2 8.00425532,5.2 C8.78027954,5.2 9.4416539,5.47336807 9.98839823,6.0201124 C10.5351426,6.56685674 10.8085106,7.2282311 10.8085106,8.00425532 C10.8085106,8.78027954 10.5351426,9.4416539 9.98839823,9.98839823 C9.4416539,10.5351426 8.78027954,10.8085106 8.00425532,10.8085106 Z" id="Icon"></path>
                </g>
            </g>
        </g>
    </g>
</svg>